<svg height="32" viewBox="0 0 300 300" width="32" xmlns="http://www.w3.org/2000/svg"><path d="m151.123 14.8c-74.557 0-134.998 60.44-134.998 135.002 0 74.554 60.44 134.998 134.998 134.998 74.559 0 135.002-60.443 135.002-134.998 0-74.561-60.443-135.002-135.002-135.002zm0 250.914c-64.013 0-115.911-51.901-115.911-115.912 0-64.018 51.898-115.911 115.911-115.911 64.019 0 115.912 51.894 115.912 115.911 0 64.011-51.893 115.912-115.912 115.912z" fill="#d77e47"/><circle cx="151.125" cy="149.802" fill="#d77e47" r="104.431"/><path d="m139.156 93.922c3.02-2.791 6.638-4.183 10.829-4.183 4.195 0 7.785 1.392 10.793 4.183 2.996 2.804 4.496 6.161 4.496 10.091 0 3.931-1.517 7.279-4.54 10.051-3.021 2.768-6.602 4.151-10.749 4.151-4.183 0-7.801-1.379-10.829-4.151-3.024-2.771-4.536-6.12-4.536-10.051 0-3.93 1.512-7.287 4.536-10.091zm37.448 115.939h-49.046v-5.663c1.347-.1 2.663-.236 3.962-.389 1.287-.16 2.402-.413 3.329-.778 1.665-.613 2.824-1.516 3.505-2.679.666-1.163 1.011-2.699 1.011-4.616v-45.172c0-1.809-.417-3.393-1.239-4.765-.83-1.38-1.869-2.483-3.108-3.305-.926-.618-2.346-1.215-4.227-1.789-1.885-.565-3.609-.922-5.158-1.083v-5.659l38.029-2.018 1.163 1.159v61.62c0 1.813.393 3.345 1.158 4.616.782 1.268 1.89 2.206 3.341 2.835a25.31 25.31 0 0 0 3.413 1.239 23.73 23.73 0 0 0 3.883.778v5.667h-.016z" fill="#fff"/></svg>