<svg height="32" viewBox="0 0 400 400" width="32" xmlns="http://www.w3.org/2000/svg" xmlns:xlink="http://www.w3.org/1999/xlink"><title/><defs><path d="M65.798 240C83.008 297.83 136.58 340 200 340c70.53 0 128.878-52.154 138.582-120h-30.396c-9.405 51.202-54.265 90-108.186 90-46.64 0-86.5-29.026-102.501-70H115l-36-50-36 50h22.798zm268.404-80C316.992 102.17 263.42 60 200 60c-70.53 0-128.878 52.154-138.582 120h30.396c9.405-51.202 54.265-90 108.186-90 46.64 0 86.5 29.026 102.501 70H285l36 50 36-50h-22.798z" id="b"/><filter filterUnits="objectBoundingBox" height="200%" id="a" width="200%" x="-50%" y="-50%"><feOffset dy="4" in="SourceAlpha" result="shadowOffsetOuter1"/><feGaussianBlur in="shadowOffsetOuter1" result="shadowBlurOuter1" stdDeviation="2"/><feColorMatrix in="shadowBlurOuter1" values="0 0 0 0 0 0 0 0 0 0 0 0 0 0 0 0 0 0 0.5 0"/></filter></defs><g fill="none" fill-rule="evenodd"><path d="M200 400c110.457 0 200-89.543 200-200S310.457 0 200 0 0 89.543 0 200s89.543 200 200 200z" fill="#AAD8B0"/><use fill="#000" filter="url(#a)" xlink:href="#b"/><use fill="#697F9B" xlink:href="#b"/></g></svg>