<svg height="32" viewBox="0 0 300 300" width="32" xmlns="http://www.w3.org/2000/svg"><path d="M150.52 15.398c-74.562 0-135.001 60.442-135.001 135.001 0 74.555 60.439 135.003 135.001 135.003 74.557 0 135.001-60.448 135.001-135.003 0-74.559-60.445-135.001-135.001-135.001zm0 250.914c-64.018 0-115.913-51.897-115.913-115.913S86.502 34.49 150.52 34.49c64.013 0 115.91 51.894 115.91 115.909s-51.898 115.913-115.91 115.913z" fill="#44B39B"/><path d="M254.947 150.401c0 57.672-46.756 104.424-104.428 104.424-57.677 0-104.43-46.752-104.43-104.424 0-57.676 46.753-104.432 104.43-104.432 57.672 0 104.428 46.756 104.428 104.432z" fill="#44B39B"/><path fill="#FFF" d="M196.328 220.879L150.523 196.796 104.72 220.871 113.465 169.872 76.405 133.759 127.623 126.317 150.52 79.918 173.424 126.317 224.631 133.759 187.573 169.872z"/></svg>