<svg height="32" viewBox="0 0 300 300" width="32" xmlns="http://www.w3.org/2000/svg"><path d="M150.52 14.524c-74.787 0-135.41 60.627-135.41 135.414 0 74.779 60.623 135.406 135.41 135.406 74.782 0 135.409-60.627 135.409-135.406 0-74.787-60.627-135.414-135.409-135.414zm0 251.675c-64.211 0-116.264-52.059-116.264-116.262 0-64.211 52.052-116.261 116.264-116.261 64.207 0 116.261 52.05 116.261 116.261-.001 64.204-52.054 116.262-116.261 116.262z" fill="#A3D179"/><path d="M255.264 149.934c0 57.852-46.897 104.744-104.744 104.744-57.852 0-104.747-46.893-104.747-104.744S92.668 45.19 150.52 45.19c57.846-.001 104.744 46.893 104.744 104.744z" fill="#A3D179"/><path fill="#FFF" d="M137.202 211.401l-55.224-85.407v-1.074l51.74 23.38 85.341-59.834z"/></svg>