<svg height="150" viewBox="0 0 360 360" width="150" xmlns="http://www.w3.org/2000/svg"><clipPath id="a"><path clip-rule="evenodd" d="M.004 2551.18H2551.18V0H.004z"/></clipPath><clipPath id="b"><path clip-rule="evenodd" d="M1527.74 1304.39h160.77l-113.37 438.95h-257.5l-113.36-438.95h160.77l14.37 56.2h133.94zm-46.04 173.49h-80.8l40.4 156.86zm-330.58-670.04h160.77l-113.37 438.95H941.023L827.66 807.84h160.762l14.378 56.199h133.95zm-35.86 171.762h-80.8l40.4 156.868zM574.305 807.84h180.097l113.368 438.95H706.996l-42.641-165.32-42.636 165.32H441.613l-42.64-165.32-42.637 165.32H195.563l113.363-438.95h180.101l42.641 165.312zm1167.235 935.5v-52.24h-.32V1512h.32v-207.61h155.6v142.22l86.13-87.54c28.37-28.85 64.88-54.68 106.98-54.68h264.27v129.88h-214.51c-14.61 0-25.38 7.57-32.71 19.83l-3.67 6.13 6.65 2.63c27.22 10.79 48.86 28.73 65.35 52.85 16.76 24.47 25.6 51.49 25.6 81.22 0 40.82-15.83 74.7-45.04 102.88-29.24 28.19-63.8 43.53-104.64 43.53zm157.42-184.63v78.07h108.36c10.52 0 19.48-4.2 26.82-11.64 7.43-7.56 11.48-16.75 11.48-27.39 0-10.66-4.05-19.84-11.49-27.39-7.33-7.46-16.28-11.65-26.81-11.65zm-992.491-254.32h155.611v309.09h152.04v129.86H583.441c-36.296 0-66.855-14.19-92.703-39.25-25.996-25.23-40.383-55.49-40.383-92 0-37.43 10.489-72 41.547-95.15l74.438-55.49c2.789-2 3.984-5.07 3.984-8.39 0-10.43-4.699-18.79-16.187-18.79h-358.41v-129.88h442.449c35.504 0 66.086 13.03 92.672 36.19 26.371 22.96 40.972 51.37 40.972 86.63 0 40.52-15.355 73.3-47.675 97.99l-79.868 61.04c-2.918 2.1-4.043 5.51-4.043 8.99 0 10.41 4.926 18.25 16.188 18.25h250.047zm475.301-57.6v-52.24h-.32v-179.1h.32V807.84h155.61v142.223l86.11-87.547c28.39-28.852 64.89-54.676 106.99-54.676h363.02c35.5 0 66.09 13.023 92.68 36.183 26.35 22.961 40.96 51.383 40.96 86.641 0 40.508-15.35 73.296-47.68 97.976l-79.88 61.07c-2.94 2.09-4.03 5.51-4.03 8.97 0 10.41 4.94 18.23 16.19 18.23h243.72v129.88h-316.7c-36.29 0-66.86-14.19-92.7-39.27-25.99-25.22-40.4-55.49-40.4-91.98 0-37.45 10.5-72.02 41.56-95.16l74.37-55.446c2.83-1.993 4.05-5.071 4.05-8.43 0-10.434-4.69-18.793-16.18-18.793h-229.22c-14.61 0-25.37 7.551-32.7 19.816l-3.67 6.129 6.64 2.637c27.23 10.801 48.85 28.738 65.37 52.857 16.73 24.47 25.58 51.51 25.58 81.22 0 40.83-15.81 74.71-45.03 102.88-29.24 28.18-63.8 43.54-104.65 43.54zm157.42-184.63v78.06h108.36c10.53 0 19.49-4.18 26.83-11.63 7.43-7.56 11.48-16.75 11.48-27.39 0-10.66-4.05-19.85-11.49-27.4-7.33-7.45-16.29-11.64-26.82-11.64z"/></clipPath><g fill-rule="evenodd"><g clip-path="url(#a)" transform="matrix(.125 0 0 -.125 0 320)"><path d="M1296.73 1275.59c0 11.68-9.46 21.14-21.14 21.14-11.67 0-21.14-9.46-21.14-21.14s9.47-21.14 21.14-21.14c11.68 0 21.14 9.46 21.14 21.14" fill="#ed1c24"/><path d="M1289.68 1275.59c0-7.78-6.3-14.09-14.09-14.09-7.78 0-14.09 6.31-14.09 14.09s6.31 14.09 14.09 14.09c7.79 0 14.09-6.31 14.09-14.09zm21.14 0c0 19.46-15.77 35.23-35.23 35.23s-35.23-15.77-35.23-35.23 15.77-35.23 35.23-35.23 35.23 15.77 35.23 35.23" fill="#eb1c24"/><path d="M1303.78 1275.59c0-15.57-12.62-28.19-28.19-28.19-15.56 0-28.18 12.62-28.18 28.19s12.62 28.19 28.18 28.19c15.57 0 28.19-12.62 28.19-28.19zm21.14 0c0 27.24-22.08 49.33-49.33 49.33-27.24 0-49.32-22.09-49.32-49.33s22.08-49.33 49.32-49.33c27.25 0 49.33 22.09 49.33 49.33" fill="#e81b23"/><path d="M1317.87 1275.59c0-23.35-18.93-42.28-42.28-42.28s-42.28 18.93-42.28 42.28 18.93 42.28 42.28 42.28 42.28-18.93 42.28-42.28zm21.14 0c0 35.03-28.39 63.42-63.42 63.42-35.02 0-63.42-28.39-63.42-63.42s28.4-63.42 63.42-63.42c35.03 0 63.42 28.39 63.42 63.42" fill="#e61b23"/><path d="M1331.96 1275.59c0-31.14-25.23-56.38-56.37-56.38-31.13 0-56.37 25.24-56.37 56.38 0 31.13 25.24 56.37 56.37 56.37 31.14 0 56.37-25.24 56.37-56.37zm21.15 0c0 42.81-34.71 77.52-77.52 77.52s-77.51-34.71-77.51-77.52 34.7-77.52 77.51-77.52 77.52 34.71 77.52 77.52" fill="#e31b22"/><path d="M1346.06 1275.59c0-38.92-31.55-70.47-70.47-70.47s-70.46 31.55-70.46 70.47 31.54 70.47 70.46 70.47 70.47-31.55 70.47-70.47zm21.14 0c0 50.59-41.01 91.61-91.61 91.61-50.59 0-91.61-41.02-91.61-91.61s41.02-91.61 91.61-91.61c50.6 0 91.61 41.02 91.61 91.61" fill="#e21a22"/><path d="M1360.15 1275.59c0-46.7-37.86-84.56-84.56-84.56s-84.56 37.86-84.56 84.56 37.86 84.56 84.56 84.56 84.56-37.86 84.56-84.56zm21.14 0c0 58.38-47.32 105.7-105.7 105.7s-105.7-47.32-105.7-105.7 47.32-105.7 105.7-105.7 105.7 47.32 105.7 105.7" fill="#df1a22"/><path d="M1374.25 1275.59c0-54.49-44.17-98.65-98.66-98.65-54.48 0-98.65 44.16-98.65 98.65 0 54.48 44.17 98.65 98.65 98.65 54.49 0 98.66-44.17 98.66-98.65zm21.14 0c0 66.16-53.64 119.79-119.8 119.79s-119.79-53.63-119.79-119.79 53.63-119.79 119.79-119.79 119.8 53.63 119.8 119.79" fill="#dd1a21"/><path d="M1388.34 1275.59c0-62.27-50.48-112.75-112.75-112.75s-112.75 50.48-112.75 112.75 50.48 112.75 112.75 112.75 112.75-50.48 112.75-112.75zm21.14 0c0 73.94-59.94 133.89-133.89 133.89-73.94 0-133.89-59.95-133.89-133.89 0-73.95 59.95-133.89 133.89-133.89 73.95 0 133.89 59.94 133.89 133.89" fill="#db1921"/><path d="M1402.43 1275.59c0-70.05-56.79-126.84-126.84-126.84s-126.84 56.79-126.84 126.84 56.79 126.84 126.84 126.84 126.84-56.79 126.84-126.84zm21.14 0c0 81.73-66.25 147.98-147.98 147.98s-147.98-66.25-147.98-147.98 66.25-147.98 147.98-147.98 147.98 66.25 147.98 147.98" fill="#d81920"/><path d="M1416.53 1275.59c0-77.84-63.1-140.93-140.94-140.93-77.83 0-140.93 63.09-140.93 140.93s63.1 140.93 140.93 140.93c77.84 0 140.94-63.09 140.94-140.93zm21.14 0c0 89.51-72.57 162.07-162.08 162.07s-162.07-72.56-162.07-162.07 72.56-162.07 162.07-162.07 162.08 72.56 162.08 162.07" fill="#d61920"/><path d="M1430.62 1275.59c0-85.62-69.41-155.03-155.03-155.03s-155.03 69.41-155.03 155.03 69.41 155.03 155.03 155.03 155.03-69.41 155.03-155.03zm21.14 0c0 97.29-78.87 176.16-176.17 176.16-97.29 0-176.16-78.87-176.16-176.16 0-97.3 78.87-176.17 176.16-176.17 97.3 0 176.17 78.87 176.17 176.17" fill="#d4181f"/><path d="M1444.71 1275.59c0-93.4-75.71-169.12-169.12-169.12-93.4 0-169.12 75.72-169.12 169.12s75.72 169.12 169.12 169.12c93.41 0 169.12-75.72 169.12-169.12zm21.14 0c0 105.08-85.18 190.26-190.26 190.26s-190.26-85.18-190.26-190.26 85.18-190.26 190.26-190.26 190.26 85.18 190.26 190.26" fill="#d1181f"/><path d="M1458.8 1275.59c0-101.19-82.02-183.21-183.21-183.21-101.18 0-183.21 82.02-183.21 183.21s82.03 183.21 183.21 183.21c101.19 0 183.21-82.02 183.21-183.21zm21.15 0c0 112.86-91.5 204.35-204.36 204.35s-204.35-91.49-204.35-204.35 91.49-204.36 204.35-204.36 204.36 91.5 204.36 204.36" fill="#d0181f"/><path d="M1472.9 1275.59c0-108.97-88.34-197.31-197.31-197.31s-197.3 88.34-197.3 197.31 88.33 197.3 197.3 197.3 197.31-88.33 197.31-197.3zm21.14 0c0 120.64-97.8 218.45-218.45 218.45-120.64 0-218.45-97.81-218.45-218.45 0-120.65 97.81-218.45 218.45-218.45 120.65 0 218.45 97.8 218.45 218.45" fill="#cd181e"/><path d="M1486.99 1275.59c0-116.75-94.64-211.4-211.4-211.4-116.75 0-211.4 94.65-211.4 211.4s94.65 211.4 211.4 211.4c116.76 0 211.4-94.65 211.4-211.4zm21.14 0c0 128.43-104.11 232.54-232.54 232.54s-232.54-104.11-232.54-232.54 104.11-232.54 232.54-232.54 232.54 104.11 232.54 232.54" fill="#cb171e"/><path d="M1501.09 1275.59c0-124.54-100.96-225.5-225.5-225.5s-225.49 100.96-225.49 225.5 100.95 225.49 225.49 225.49 225.5-100.95 225.5-225.49zm21.14 0c0 136.21-110.43 246.64-246.64 246.64s-246.63-110.43-246.63-246.64 110.42-246.64 246.63-246.64 246.64 110.43 246.64 246.64" fill="#c8171e"/><path d="M1515.18 1275.59c0-132.32-107.27-239.59-239.59-239.59S1036 1143.27 1036 1275.59s107.27 239.59 239.59 239.59 239.59-107.27 239.59-239.59zm21.14 0c0 144-116.73 260.73-260.73 260.73-143.99 0-260.73-116.73-260.73-260.73s116.74-260.73 260.73-260.73c144 0 260.73 116.73 260.73 260.73" fill="#c6171d"/><path d="M1529.27 1275.59c0-140.11-113.57-253.68-253.68-253.68-140.1 0-253.68 113.57-253.68 253.68 0 140.1 113.58 253.68 253.68 253.68 140.11 0 253.68-113.58 253.68-253.68zm21.14 0c0 151.78-123.04 274.82-274.82 274.82s-274.82-123.04-274.82-274.82 123.04-274.82 274.82-274.82 274.82 123.04 274.82 274.82" fill="#c4161d"/><path d="M1543.37 1275.59c0-147.89-119.89-267.77-267.78-267.77s-267.77 119.88-267.77 267.77 119.88 267.77 267.77 267.77 267.78-119.88 267.78-267.77zm21.14 0c0 159.56-129.35 288.91-288.92 288.91-159.56 0-288.91-129.35-288.91-288.91s129.35-288.914 288.91-288.914c159.57 0 288.92 129.354 288.92 288.914" fill="#c1161c"/><path d="M1557.46 1275.59c0-155.67-126.2-281.867-281.87-281.867S993.727 1119.92 993.727 1275.59s126.193 281.87 281.863 281.87 281.87-126.2 281.87-281.87zm21.14 0c0 167.35-135.66 303.01-303.01 303.01-167.34 0-303.008-135.66-303.008-303.01s135.668-303.008 303.008-303.008c167.35 0 303.01 135.658 303.01 303.008" fill="#bf161c"/><path d="M1571.55 1275.59c0-163.46-132.5-295.961-295.96-295.961-163.45 0-295.957 132.501-295.957 295.961 0 163.45 132.507 295.96 295.957 295.96 163.46 0 295.96-132.51 295.96-295.96zm21.15 0c0 175.13-141.98 317.1-317.11 317.1s-317.102-141.97-317.102-317.1 141.972-317.102 317.102-317.102 317.11 141.972 317.11 317.102" fill="#bd151c"/><path d="M1585.65 1275.59c0-171.24-138.82-310.055-310.06-310.055S965.535 1104.35 965.535 1275.59s138.815 310.05 310.055 310.05 310.06-138.81 310.06-310.05zm21.14 0c0 182.91-148.29 331.2-331.2 331.2s-331.195-148.29-331.195-331.2 148.285-331.195 331.195-331.195 331.2 148.285 331.2 331.195" fill="#bb151b"/><path d="M1599.74 1275.59c0-179.02-145.12-324.149-324.15-324.149-179.02 0-324.149 145.129-324.149 324.149s145.129 324.15 324.149 324.15c179.03 0 324.15-145.13 324.15-324.15zm21.14 0c0 190.7-154.59 345.29-345.29 345.29s-345.289-154.59-345.289-345.29 154.589-345.289 345.289-345.289 345.29 154.589 345.29 345.289" fill="#b8151b"/><path d="M1613.84 1275.59c0-186.8-151.44-338.242-338.25-338.242-186.8 0-338.242 151.442-338.242 338.242s151.442 338.24 338.242 338.24c186.81 0 338.25-151.44 338.25-338.24zm21.13 0c0 198.48-160.9 359.38-359.38 359.38s-359.379-160.9-359.379-359.38 160.899-359.383 359.379-359.383 359.38 160.903 359.38 359.383" fill="#b6141a"/><path d="M1627.93 1275.59c0-194.59-157.75-352.336-352.34-352.336S923.258 1081 923.258 1275.59 1081 1627.92 1275.59 1627.92s352.34-157.74 352.34-352.33zm21.14 0c0 206.27-167.21 373.47-373.48 373.47-206.26 0-373.473-167.2-373.473-373.47s167.213-373.477 373.473-373.477c206.27 0 373.48 167.207 373.48 373.477" fill="#b4141a"/><path d="M1642.02 1275.59c0-202.38-164.06-366.43-366.43-366.43s-366.426 164.05-366.426 366.43c0 202.37 164.056 366.43 366.426 366.43s366.43-164.06 366.43-366.43zm21.14 0c0 214.05-173.52 387.57-387.57 387.57s-387.567-173.52-387.567-387.57 173.517-387.57 387.567-387.57 387.57 173.52 387.57 387.57" fill="#b11419"/><path d="M1656.11 1275.59c0-210.16-170.36-380.524-380.52-380.524-210.15 0-380.52 170.364-380.52 380.524s170.37 380.52 380.52 380.52c210.16 0 380.52-170.36 380.52-380.52zm21.14 0c0 221.83-179.82 401.66-401.66 401.66-221.83 0-401.66-179.83-401.66-401.66s179.83-401.664 401.66-401.664c221.84 0 401.66 179.834 401.66 401.664" fill="#af1319"/><path d="M1670.21 1275.59c0-217.94-176.68-394.617-394.62-394.617S880.977 1057.65 880.977 1275.59s176.673 394.61 394.613 394.61 394.62-176.67 394.62-394.61zm21.14 0c0 229.62-186.14 415.75-415.76 415.75-229.61 0-415.754-186.13-415.754-415.75s186.144-415.758 415.754-415.758c229.62 0 415.76 186.138 415.76 415.758" fill="#ad1319"/><path d="M1684.3 1275.59c0-225.73-182.98-408.711-408.71-408.711-225.72 0-408.707 182.981-408.707 408.711 0 225.72 182.987 408.71 408.707 408.71 225.73 0 408.71-182.99 408.71-408.71zm21.14 0c0 237.4-192.45 429.85-429.85 429.85s-429.848-192.45-429.848-429.85 192.448-429.852 429.848-429.852 429.85 192.452 429.85 429.852" fill="#aa1318"/><path d="M1698.39 1275.59c0-233.51-189.29-422.805-422.8-422.805S852.789 1042.08 852.789 1275.59s189.291 422.8 422.801 422.8 422.8-189.29 422.8-422.8zm21.14 0c0 245.18-198.76 443.94-443.94 443.94s-443.938-198.76-443.938-443.94 198.758-443.942 443.938-443.942 443.94 198.762 443.94 443.942" fill="#a91318"/><path d="M1712.49 1275.59c0-241.29-195.61-436.899-436.9-436.899S838.695 1034.3 838.695 1275.59s195.605 436.89 436.895 436.89 436.9-195.6 436.9-436.89zm21.14 0c0 252.96-205.07 458.04-458.04 458.04-252.96 0-458.031-205.08-458.031-458.04s205.071-458.035 458.031-458.035c252.97 0 458.04 205.075 458.04 458.035" fill="#a61217"/><path d="M1726.58 1275.59c0-249.07-201.92-450.988-450.99-450.988S824.605 1026.52 824.605 1275.59s201.915 450.99 450.985 450.99 450.99-201.92 450.99-450.99zm21.14 0c0 260.75-211.38 472.13-472.13 472.13s-472.125-211.38-472.125-472.13 211.375-472.129 472.125-472.129 472.13 211.379 472.13 472.129" fill="#a41217"/><path d="M1740.67 1275.59c0-256.86-208.22-465.082-465.08-465.082S810.512 1018.73 810.512 1275.59s208.218 465.08 465.078 465.08 465.08-208.22 465.08-465.08zm21.15 0c0 268.53-217.69 486.22-486.23 486.22-268.53 0-486.219-217.69-486.219-486.22 0-268.54 217.689-486.223 486.219-486.223 268.54 0 486.23 217.683 486.23 486.223" fill="#a11217"/><path d="M1754.77 1275.59c0-264.64-214.54-479.176-479.18-479.176S796.418 1010.95 796.418 1275.59s214.532 479.18 479.172 479.18 479.18-214.54 479.18-479.18zm21.14 0c0 276.32-224 500.32-500.32 500.32-276.317 0-500.313-224-500.313-500.32 0-276.317 223.996-500.317 500.313-500.317 276.32 0 500.32 224 500.32 500.317" fill="#9f1116"/><path d="M1768.86 1275.59c0-272.43-220.84-493.27-493.27-493.27-272.42 0-493.266 220.84-493.266 493.27s220.846 493.27 493.266 493.27c272.43 0 493.27-220.84 493.27-493.27zm21.14 0c0 284.1-230.31 514.41-514.41 514.41-284.098 0-514.406-230.31-514.406-514.41 0-284.102 230.308-514.41 514.406-514.41 284.1 0 514.41 230.308 514.41 514.41" fill="#9d1116"/><path d="M1782.96 1275.59c0-280.211-227.16-507.363-507.37-507.363-280.207 0-507.36 227.152-507.36 507.363 0 280.21 227.153 507.36 507.36 507.36 280.21 0 507.37-227.15 507.37-507.36zm21.13 0c0 291.88-236.61 528.5-528.5 528.5-291.883 0-528.5-236.62-528.5-528.5 0-291.887 236.617-528.5 528.5-528.5 291.89 0 528.5 236.613 528.5 528.5" fill="#9a1115"/><path d="M1797.05 1275.59c0-287.992-233.46-521.457-521.46-521.457-287.992 0-521.453 233.465-521.453 521.457 0 287.99 233.461 521.46 521.453 521.46 288 0 521.46-233.47 521.46-521.46zm21.14 0c0 299.67-242.93 542.59-542.6 542.59-299.668 0-542.594-242.92-542.594-542.59 0-299.668 242.926-542.598 542.594-542.598 299.67 0 542.6 242.93 542.6 542.598" fill="#981015"/><path d="M1811.14 1275.59c0-295.777-239.77-535.551-535.55-535.551-295.774 0-535.547 239.774-535.547 535.551 0 295.78 239.773 535.55 535.547 535.55 295.78 0 535.55-239.77 535.55-535.55zm21.14 0c0 307.45-249.24 556.69-556.69 556.69-307.449 0-556.688-249.24-556.688-556.69 0-307.449 249.239-556.692 556.688-556.692 307.45 0 556.69 249.243 556.69 556.692" fill="#961015"/><path d="M1825.23 1275.59c0-303.559-246.08-549.645-549.64-549.645-303.555 0-549.641 246.086-549.641 549.645 0 303.56 246.086 549.64 549.641 549.64 303.56 0 549.64-246.08 549.64-549.64zm21.15 0c0 315.23-255.56 570.78-570.79 570.78-315.231 0-570.781-255.55-570.781-570.78 0-315.235 255.55-570.785 570.781-570.785 315.23 0 570.79 255.55 570.79 570.785" fill="#941014"/><path d="M1839.33 1275.59c0-311.344-252.4-563.738-563.74-563.738S711.855 964.246 711.855 1275.59c0 311.34 252.395 563.73 563.735 563.73s563.74-252.39 563.74-563.73zm21.14 0c0 323.02-261.86 584.87-584.88 584.87-323.016 0-584.875-261.85-584.875-584.87s261.859-584.879 584.875-584.879c323.02 0 584.88 261.859 584.88 584.879" fill="#910f14"/><path d="M1853.42 1275.59c0-319.125-258.7-577.832-577.83-577.832-319.125 0-577.828 258.707-577.828 577.832 0 319.12 258.703 577.83 577.828 577.83 319.13 0 577.83-258.71 577.83-577.83zm21.14 0c0 330.8-268.17 598.97-598.97 598.97-330.801 0-598.969-268.17-598.969-598.97 0-330.801 268.168-598.973 598.969-598.973 330.8 0 598.97 268.172 598.97 598.973" fill="#8f0f13"/><path d="M1867.52 1275.59c0-326.91-265.02-591.926-591.93-591.926-326.906 0-591.922 265.016-591.922 591.926s265.016 591.92 591.922 591.92c326.91 0 591.93-265.01 591.93-591.92zm21.14 0c0 338.59-274.48 613.06-613.07 613.06-338.582 0-613.059-274.47-613.059-613.06 0-338.586 274.477-613.067 613.059-613.067 338.59 0 613.07 274.481 613.07 613.067" fill="#8d0f13"/><path d="M1881.61 1275.59c0-334.695-271.32-606.02-606.02-606.02-334.692 0-606.016 271.325-606.016 606.02 0 334.69 271.324 606.02 606.016 606.02 334.7 0 606.02-271.33 606.02-606.02zm21.14 0c0 346.37-280.79 627.16-627.16 627.16-346.367 0-627.152-280.79-627.152-627.16 0-346.371 280.785-627.156 627.152-627.156 346.37 0 627.16 280.785 627.16 627.156" fill="#8a0e12"/><path d="M1895.7 1275.59c0-342.477-277.63-620.11-620.11-620.11-342.477 0-620.106 277.633-620.106 620.11 0 342.48 277.629 620.11 620.106 620.11 342.48 0 620.11-277.63 620.11-620.11zm21.14 0c0 354.15-287.09 641.25-641.25 641.25-354.152 0-641.246-287.1-641.246-641.25 0-354.152 287.094-641.25 641.246-641.25 354.16 0 641.25 287.098 641.25 641.25" fill="#880e12"/><path d="M1909.79 1275.59c0-350.262-283.94-634.203-634.2-634.203-350.258 0-634.199 283.941-634.199 634.203 0 350.26 283.941 634.2 634.199 634.2 350.26 0 634.2-283.94 634.2-634.2zm21.14 0c0 361.93-293.4 655.34-655.34 655.34-361.934 0-655.34-293.41-655.34-655.34 0-361.938 293.406-655.344 655.34-655.344 361.94 0 655.34 293.406 655.34 655.344" fill="#850e12"/><path d="M1923.89 1275.59c0-358.047-290.25-648.297-648.3-648.297-358.043 0-648.293 290.25-648.293 648.297 0 358.04 290.25 648.3 648.293 648.3 358.05 0 648.3-290.26 648.3-648.3zm21.14 0c0 369.72-299.72 669.44-669.44 669.44-369.715 0-669.434-299.72-669.434-669.44 0-369.719 299.719-669.438 669.434-669.438 369.72 0 669.44 299.719 669.44 669.438" fill="#830e12"/><path d="M1937.98 1275.59c0-365.828-296.56-662.391-662.39-662.391-365.824 0-662.387 296.563-662.387 662.391 0 365.82 296.563 662.39 662.387 662.39 365.83 0 662.39-296.57 662.39-662.39zm21.14 0c0 377.5-306.03 683.53-683.53 683.53s-683.527-306.03-683.527-683.53c0-377.504 306.027-683.531 683.527-683.531s683.53 306.027 683.53 683.531" fill="#810e12"/><path d="M1952.07 1275.59c0-373.61-302.87-676.485-676.48-676.485S599.109 901.98 599.109 1275.59s302.871 676.48 676.481 676.48 676.48-302.87 676.48-676.48zm21.14 0c0 385.29-312.33 697.62-697.62 697.62-385.285 0-697.621-312.33-697.621-697.62 0-385.285 312.336-697.625 697.621-697.625 385.29 0 697.62 312.34 697.62 697.625" fill="#7f0e12"/><path d="M1966.17 1275.59c0-381.395-309.18-690.578-690.58-690.578-381.391 0-690.574 309.183-690.574 690.578 0 381.39 309.183 690.58 690.574 690.58 381.4 0 690.58-309.19 690.58-690.58zm21.14 0c0 393.07-318.65 711.71-711.72 711.71-393.067 0-711.715-318.64-711.715-711.71s318.648-711.715 711.715-711.715c393.07 0 711.72 318.645 711.72 711.715" fill="#7c0e11"/><path d="M1980.26 1275.59c0-389.18-315.49-704.668-704.67-704.668-389.176 0-704.668 315.488-704.668 704.668s315.492 704.67 704.668 704.67c389.18 0 704.67-315.49 704.67-704.67zm21.14 0c0 400.86-324.95 725.81-725.81 725.81-400.852 0-725.809-324.95-725.809-725.81 0-400.856 324.957-725.809 725.809-725.809 400.86 0 725.81 324.953 725.81 725.809" fill="#790e11"/><path d="M1994.36 1275.59c0-396.965-321.81-718.762-718.77-718.762-396.961 0-718.762 321.797-718.762 718.762 0 396.96 321.801 718.76 718.762 718.76 396.96 0 718.77-321.8 718.77-718.76zm21.14 0c0 408.64-331.27 739.9-739.91 739.9-408.637 0-739.902-331.26-739.902-739.9 0-408.641 331.265-739.902 739.902-739.902 408.64 0 739.91 331.261 739.91 739.902" fill="#770e11"/><path d="M2008.45 1275.59c0-404.746-328.11-732.856-732.86-732.856-404.742 0-732.856 328.11-732.856 732.856 0 404.75 328.114 732.86 732.856 732.86 404.75 0 732.86-328.11 732.86-732.86zm21.14 0c0 416.42-337.57 754-754 754-416.422 0-753.996-337.58-753.996-754 0-416.422 337.574-753.996 753.996-753.996 416.43 0 754 337.574 754 753.996" fill="#740e11"/><path d="M2022.54 1275.59c0-412.531-334.42-746.949-746.95-746.949-412.527 0-746.949 334.418-746.949 746.949 0 412.53 334.422 746.95 746.949 746.95 412.53 0 746.95-334.42 746.95-746.95zm21.14 0c0 424.2-343.88 768.09-768.09 768.09-424.199 0-768.09-343.89-768.09-768.09 0-424.203 343.891-768.094 768.09-768.094 424.21 0 768.09 343.891 768.09 768.094" fill="#730e11"/><path d="M2036.64 1275.59c0-420.317-340.73-761.043-761.05-761.043-420.313 0-761.043 340.726-761.043 761.043 0 420.31 340.73 761.04 761.043 761.04 420.32 0 761.05-340.73 761.05-761.04zm21.14 0c0 431.99-350.2 782.18-782.19 782.18-431.985 0-782.184-350.19-782.184-782.18 0-431.988 350.199-782.188 782.184-782.188 431.99 0 782.19 350.2 782.19 782.188" fill="#6f0e11"/><path d="M2050.73 1275.59c0-428.098-347.04-775.141-775.14-775.141-428.094 0-775.137 347.043-775.137 775.141 0 428.09 347.043 775.14 775.137 775.14 428.1 0 775.14-347.05 775.14-775.14zm21.14 0c0 439.77-356.51 796.28-796.28 796.28s-796.274-356.51-796.274-796.28c0-439.774 356.504-796.277 796.274-796.277s796.28 356.503 796.28 796.277" fill="#6e0e11"/><path d="M2064.82 1275.59c0-435.879-353.35-789.231-789.23-789.231-435.879 0-789.227 353.352-789.227 789.231 0 435.88 353.348 789.23 789.227 789.23 435.88 0 789.23-353.35 789.23-789.23zm21.14 0c0 447.55-362.81 810.37-810.37 810.37-447.555 0-810.367-362.82-810.367-810.37 0-447.555 362.812-810.371 810.367-810.371 447.56 0 810.37 362.816 810.37 810.371" fill="#6b0e11"/><path d="M2078.91 1275.59c0-443.664-359.66-803.324-803.32-803.324s-803.32 359.66-803.32 803.324c0 443.66 359.66 803.32 803.32 803.32s803.32-359.66 803.32-803.32zm21.14 0c0 455.34-369.12 824.46-824.46 824.46-455.336 0-824.461-369.12-824.461-824.46s369.125-824.465 824.461-824.465c455.34 0 824.46 369.125 824.46 824.465" fill="#690e11"/><path d="M2093.01 1275.59c0-451.449-365.97-817.418-817.42-817.418-451.445 0-817.414 365.969-817.414 817.418 0 451.45 365.969 817.42 817.414 817.42 451.45 0 817.42-365.97 817.42-817.42zm21.14 0c0 463.12-375.44 838.56-838.56 838.56-463.121 0-838.555-375.44-838.555-838.56 0-463.125 375.434-838.559 838.555-838.559 463.12 0 838.56 375.434 838.56 838.559" fill="#670d10"/><path d="M2107.1 1275.59c0-459.231-372.28-831.512-831.51-831.512-459.231 0-831.508 372.281-831.508 831.512 0 459.23 372.277 831.51 831.508 831.51 459.23 0 831.51-372.28 831.51-831.51zm21.14 0c0 470.91-381.74 852.65-852.65 852.65-470.906 0-852.649-381.74-852.649-852.65 0-470.906 381.743-852.652 852.649-852.652 470.91 0 852.65 381.746 852.65 852.652" fill="#650d10"/><path d="M2121.2 1275.59c0-467.016-378.59-845.606-845.61-845.606-467.012 0-845.602 378.59-845.602 845.606 0 467.02 378.59 845.61 845.602 845.61 467.02 0 845.61-378.59 845.61-845.61zm21.14 0c0 478.69-388.06 866.75-866.75 866.75-478.688 0-866.742-388.06-866.742-866.75 0-478.692 388.054-866.746 866.742-866.746 478.69 0 866.75 388.054 866.75 866.746" fill="#620d10"/><path d="M2135.29 1275.59c0-474.801-384.9-859.699-859.7-859.699-474.797 0-859.695 384.898-859.695 859.699 0 474.8 384.898 859.7 859.695 859.7 474.8 0 859.7-384.9 859.7-859.7zm21.14 0c0 486.47-394.37 880.84-880.84 880.84-486.469 0-880.836-394.37-880.836-880.84 0-486.473 394.367-880.836 880.836-880.836 486.47 0 880.84 394.363 880.84 880.836" fill="#610d10"/><path d="M2149.38 1275.59c0-482.582-391.2-873.793-873.79-873.793-482.578 0-873.789 391.211-873.789 873.793 0 482.58 391.211 873.79 873.789 873.79 482.59 0 873.79-391.21 873.79-873.79zm21.14 0c0 494.25-400.67 894.93-894.93 894.93-494.254 0-894.93-400.68-894.93-894.93 0-494.258 400.676-894.93 894.93-894.93 494.26 0 894.93 400.672 894.93 894.93" fill="#5e0d10"/><path d="M2163.48 1275.59c0-490.363-397.52-887.883-887.89-887.883-490.363 0-887.883 397.52-887.883 887.883 0 490.36 397.52 887.88 887.883 887.88 490.37 0 887.89-397.52 887.89-887.88zm21.14 0c0 502.04-406.99 909.02-909.03 909.02-502.039 0-909.024-406.98-909.024-909.02 0-502.039 406.985-909.024 909.024-909.024 502.04 0 909.03 406.985 909.03 909.024" fill="#5c0d10"/><path d="M2177.57 1275.59c0-498.149-403.83-901.977-901.98-901.977-498.145 0-901.977 403.828-901.977 901.977 0 498.15 403.832 901.98 901.977 901.98 498.15 0 901.98-403.83 901.98-901.98zm21.14 0c0 509.82-413.3 923.12-923.12 923.12s-923.117-413.3-923.117-923.12c0-509.824 413.297-923.117 923.117-923.117s923.12 413.293 923.12 923.117" fill="#5a0d10"/><path d="M2191.66 1275.59c0-505.934-410.14-916.07-916.07-916.07s-916.07 410.136-916.07 916.07c0 505.93 410.14 916.07 916.07 916.07s916.07-410.14 916.07-916.07zm21.14 0c0 517.61-419.6 937.21-937.21 937.21-517.606 0-937.211-419.6-937.211-937.21s419.605-937.211 937.211-937.211c517.61 0 937.21 419.601 937.21 937.211" fill="#580d0f"/><path d="M2205.76 1275.59c0-513.715-416.45-930.164-930.17-930.164-513.715 0-930.164 416.449-930.164 930.164 0 513.71 416.449 930.16 930.164 930.16 513.72 0 930.17-416.45 930.17-930.16zm21.14 0c0 525.39-425.92 951.3-951.31 951.3-525.391 0-951.305-425.91-951.305-951.3 0-525.391 425.914-951.305 951.305-951.305 525.39 0 951.31 425.914 951.31 951.305" fill="#560d0f"/><path d="M2219.85 1275.59c0-521.5-422.76-944.258-944.26-944.258-521.496 0-944.258 422.758-944.258 944.258s422.762 944.26 944.258 944.26c521.5 0 944.26-422.76 944.26-944.26zm21.14 0c0 533.18-432.22 965.39-965.4 965.39-533.172 0-965.395-432.21-965.395-965.39 0-533.176 432.223-965.399 965.395-965.399 533.18 0 965.4 432.223 965.4 965.399" fill="#530d0f"/><path d="M2233.95 1275.59c0-529.285-429.07-958.352-958.36-958.352-529.281 0-958.352 429.067-958.352 958.352 0 529.28 429.071 958.35 958.352 958.35 529.29 0 958.36-429.07 958.36-958.35zm21.13 0c0 540.96-438.53 979.49-979.49 979.49-540.957 0-979.488-438.53-979.488-979.49 0-540.961 438.531-979.492 979.488-979.492 540.96 0 979.49 438.531 979.49 979.492" fill="#520d0f"/><path d="M2248.04 1275.59c0-537.067-435.38-972.445-972.45-972.445-537.067 0-972.442 435.378-972.442 972.445 0 537.07 435.375 972.44 972.442 972.44 537.07 0 972.45-435.37 972.45-972.44zm21.14 0c0 548.74-444.85 993.58-993.59 993.58-548.738 0-993.582-444.84-993.582-993.58 0-548.742 444.844-993.586 993.582-993.586 548.74 0 993.59 444.844 993.59 993.586" fill="#4f0d0f"/><path d="M2262.13 1275.59c0-544.848-441.69-986.539-986.54-986.539-544.848 0-986.535 441.691-986.535 986.539 0 544.85 441.687 986.54 986.535 986.54 544.85 0 986.54-441.69 986.54-986.54zm21.14 0c0 556.52-451.15 1007.68-1007.68 1007.68-556.524 0-1007.676-451.16-1007.676-1007.68 0-556.524 451.152-1007.68 1007.676-1007.68 556.53 0 1007.68 451.156 1007.68 1007.68" fill="#4e0c0f"/><path d="M2276.22 1275.59c0-552.633-447.99-1000.633-1000.63-1000.633-552.629 0-1000.629 448-1000.629 1000.633 0 552.63 448 1000.63 1000.629 1000.63 552.64 0 1000.63-448 1000.63-1000.63zm21.14 0c0 564.31-457.46 1021.77-1021.77 1021.77-564.305 0-1021.77-457.46-1021.77-1021.77 0-564.309 457.465-1021.774 1021.77-1021.774 564.31 0 1021.77 457.465 1021.77 1021.774" fill="#4b0c0e"/><path d="M2290.32 1275.59c0-560.418-454.31-1014.727-1014.73-1014.727-560.414 0-1014.723 454.309-1014.723 1014.727 0 560.41 454.309 1014.73 1014.723 1014.73 560.42 0 1014.73-454.32 1014.73-1014.73zm21.14 0c0 572.09-463.78 1035.87-1035.87 1035.87S239.727 1847.68 239.727 1275.59c0-572.094 463.773-1035.867 1035.863-1035.867S2311.46 703.496 2311.46 1275.59" fill="#4a0c0e"/><path d="M2304.41 1275.59c0-568.199-460.62-1028.82-1028.82-1028.82-568.199 0-1028.817 460.621-1028.817 1028.82 0 568.2 460.618 1028.82 1028.817 1028.82 568.2 0 1028.82-460.62 1028.82-1028.82zm21.14 0c0 579.87-470.08 1049.96-1049.96 1049.96-579.875 0-1049.957-470.09-1049.957-1049.96 0-579.879 470.082-1049.961 1049.957-1049.961 579.88 0 1049.96 470.082 1049.96 1049.961" fill="#480c0e"/><path d="M2318.5 1275.59c0-575.985-466.92-1042.914-1042.91-1042.914-575.981 0-1042.91 466.929-1042.91 1042.914 0 575.98 466.929 1042.91 1042.91 1042.91 575.99 0 1042.91-466.93 1042.91-1042.91zm21.14 0c0 587.66-476.39 1064.05-1064.05 1064.05-587.656 0-1064.047-476.39-1064.047-1064.05S687.934 211.539 1275.59 211.539c587.66 0 1064.05 476.391 1064.05 1064.051" fill="#460c0e"/><path d="M2332.6 1275.59c0-583.77-473.24-1057.004-1057.01-1057.004-583.766 0-1057 473.234-1057 1057.004s473.234 1057 1057 1057c583.77 0 1057.01-473.23 1057.01-1057zm21.14 0c0 595.45-482.7 1078.14-1078.15 1078.14-595.442 0-1078.145-482.69-1078.145-1078.14 0-595.445 482.703-1078.145 1078.145-1078.145 595.45 0 1078.15 482.7 1078.15 1078.145" fill="#440c0e"/><path d="M2346.69 1275.59c0-591.555-479.55-1071.098-1071.1-1071.098-591.551 0-1071.094 479.543-1071.094 1071.098 0 591.55 479.543 1071.1 1071.094 1071.1 591.55 0 1071.1-479.55 1071.1-1071.1zm21.14 0c0 603.23-489.01 1092.24-1092.24 1092.24-603.223 0-1092.238-489.01-1092.238-1092.24 0-603.231 489.015-1092.238 1092.238-1092.238 603.23 0 1092.24 489.007 1092.24 1092.238" fill="#420c0d"/><path d="M2360.79 1275.59c0-599.336-485.86-1085.192-1085.2-1085.192-599.336 0-1085.192 485.856-1085.192 1085.192 0 599.34 485.856 1085.19 1085.192 1085.19 599.34 0 1085.2-485.85 1085.2-1085.19zm21.14 0c0 611.01-495.33 1106.33-1106.34 1106.33-611.008 0-1106.332-495.32-1106.332-1106.33 0-611.012 495.324-1106.332 1106.332-1106.332 611.01 0 1106.34 495.32 1106.34 1106.332" fill="#400c0d"/><path d="M2374.88 1275.59c0-607.117-492.17-1099.285-1099.29-1099.285-607.113 0-1099.285 492.168-1099.285 1099.285 0 607.12 492.172 1099.29 1099.285 1099.29 607.12 0 1099.29-492.17 1099.29-1099.29zm21.14 0c0 618.79-501.63 1120.43-1120.43 1120.43-618.793 0-1120.426-501.64-1120.426-1120.43 0-618.793 501.633-1120.426 1120.426-1120.426 618.8 0 1120.43 501.633 1120.43 1120.426" fill="#3e0b0d"/><path d="M2388.97 1275.59c0-614.902-498.48-1113.379-1113.38-1113.379-614.899 0-1113.379 498.477-1113.379 1113.379 0 614.9 498.48 1113.38 1113.379 1113.38 614.9 0 1113.38-498.48 1113.38-1113.38zm21.14 0c0 626.58-507.94 1134.52-1134.52 1134.52-626.574 0-1134.52-507.94-1134.52-1134.52 0-626.578 507.946-1134.52 1134.52-1134.52 626.58 0 1134.52 507.942 1134.52 1134.52" fill="#3d0b0d"/><path d="M2403.07 1275.59c0-622.688-504.79-1127.473-1127.48-1127.473-622.684 0-1127.473 504.785-1127.473 1127.473 0 622.68 504.789 1127.47 1127.473 1127.47 622.69 0 1127.48-504.79 1127.48-1127.47zm21.13 0c0 634.36-514.25 1148.61-1148.61 1148.61S126.98 1909.95 126.98 1275.59c0-634.363 514.25-1148.613 1148.61-1148.613S2424.2 641.227 2424.2 1275.59" fill="#3b0b0d"/><path d="M2417.16 1275.59c0-630.469-511.1-1141.567-1141.57-1141.567-630.469 0-1141.563 511.098-1141.563 1141.567 0 630.47 511.094 1141.56 1141.563 1141.56 630.47 0 1141.57-511.09 1141.57-1141.56zm21.14 0c0 642.14-520.56 1162.7-1162.71 1162.7-642.145 0-1162.703-520.56-1162.703-1162.7 0-642.145 520.558-1162.707 1162.703-1162.707 642.15 0 1162.71 520.562 1162.71 1162.707" fill="#390b0d"/><path d="M2431.25 1275.59c0-638.254-517.41-1155.66-1155.66-1155.66S119.934 637.336 119.934 1275.59c0 638.25 517.406 1155.66 1155.656 1155.66s1155.66-517.41 1155.66-1155.66zm21.14 0c0 649.93-526.87 1176.8-1176.8 1176.8-649.926 0-1176.797-526.87-1176.797-1176.8S625.664 98.79 1275.59 98.79c649.93 0 1176.8 526.87 1176.8 1176.8" fill="#370b0c"/><path d="M2445.34 1275.59c0-646.039-523.71-1169.754-1169.75-1169.754-646.035 0-1169.75 523.715-1169.75 1169.754 0 646.04 523.715 1169.75 1169.75 1169.75 646.04 0 1169.75-523.71 1169.75-1169.75zm21.14 0c0 657.71-533.18 1190.89-1190.89 1190.89-657.711 0-1190.89-533.18-1190.89-1190.89C84.7 617.875 617.878 84.695 1275.59 84.695c657.71 0 1190.89 533.18 1190.89 1190.895" fill="#360b0c"/><path d="M2459.44 1275.59c0-653.82-530.03-1183.848-1183.85-1183.848S91.746 621.77 91.746 1275.59 621.77 2459.43 1275.59 2459.43s1183.85-530.02 1183.85-1183.84zm21.14 0c0 665.49-539.49 1204.98-1204.99 1204.98-665.492 0-1204.985-539.49-1204.985-1204.98 0-665.496 539.493-1204.988 1204.985-1204.988 665.5 0 1204.99 539.492 1204.99 1204.988" fill="#340b0c"/><path d="M2473.53 1275.59c0-661.606-536.33-1197.942-1197.94-1197.942-661.602 0-1197.938 536.336-1197.938 1197.942 0 661.61 536.336 1197.94 1197.938 1197.94 661.61 0 1197.94-536.33 1197.94-1197.94zm21.14 0c0 673.28-545.8 1219.08-1219.08 1219.08-673.277 0-1219.078-545.8-1219.078-1219.08 0-673.277 545.801-1219.082 1219.078-1219.082 673.28 0 1219.08 545.805 1219.08 1219.082" fill="#330a0c"/><path d="M2487.63 1275.59c0-669.387-542.65-1212.035-1212.04-1212.035-669.383 0-1212.031 542.648-1212.031 1212.035 0 669.39 542.648 1212.03 1212.031 1212.03 669.39 0 1212.04-542.64 1212.04-1212.03zm21.13 0c0 681.06-552.11 1233.17-1233.17 1233.17-681.059 0-1233.168-552.11-1233.168-1233.17C42.422 594.527 594.53 42.418 1275.59 42.418S2508.76 594.527 2508.76 1275.59" fill="#310a0c"/><path d="M2501.72 1275.59c0-677.172-548.96-1226.13-1226.13-1226.13-677.168 0-1226.121 548.958-1226.121 1226.13 0 677.17 548.953 1226.12 1226.121 1226.12 677.17 0 1226.13-548.95 1226.13-1226.12zm21.14 0c0 688.84-558.42 1247.27-1247.27 1247.27-688.844 0-1247.262-558.43-1247.262-1247.27 0-688.848 558.418-1247.266 1247.262-1247.266 688.85 0 1247.27 558.418 1247.27 1247.266" fill="#2f0a0b"/><path d="M2515.81 1275.59c0-684.953-555.26-1240.219-1240.22-1240.219-684.953 0-1240.215 555.266-1240.215 1240.219 0 684.95 555.262 1240.22 1240.215 1240.22 684.96 0 1240.22-555.27 1240.22-1240.22zm21.14 0c0 696.63-564.73 1261.36-1261.36 1261.36-696.629 0-1261.356-564.73-1261.356-1261.36 0-696.629 564.727-1261.36 1261.356-1261.36 696.63 0 1261.36 564.731 1261.36 1261.36" fill="#2d0a0b"/><path d="M2529.91 1275.59c0-692.738-561.58-1254.313-1254.32-1254.313-692.735 0-1254.309 561.575-1254.309 1254.313 0 692.74 561.574 1254.31 1254.309 1254.31 692.74 0 1254.32-561.57 1254.32-1254.31zm21.14 0c0 704.41-571.05 1275.45-1275.46 1275.45S.14 1980 .14 1275.59C.14 571.176 571.18.137 1275.59.137S2551.05 571.176 2551.05 1275.59" fill="#2b0a0b"/><path d="M2544 1275.59C2544 575.066 1976.11 7.184 1275.59 7.184S7.188 575.066 7.188 1275.59C7.188 1976.11 575.07 2544 1275.59 2544S2544 1976.11 2544 1275.59zm21.14 0c0 712.2-577.35 1289.55-1289.55 1289.55-712.195 0-1289.543-577.35-1289.543-1289.55 0-712.199 577.348-1289.547 1289.543-1289.547 712.2 0 1289.55 577.348 1289.55 1289.547" fill="#2a090b"/><path d="M2558.09 1275.59c0-708.305-574.19-1282.5-1282.5-1282.5C567.285-6.91-6.906 567.285-6.906 1275.59c0 708.3 574.191 1282.5 1282.496 1282.5 708.31 0 1282.5-574.2 1282.5-1282.5zm21.14 0c0 719.98-583.66 1303.64-1303.64 1303.64-719.981 0-1303.637-583.66-1303.637-1303.64 0-719.981 583.656-1303.64 1303.637-1303.64 719.98 0 1303.64 583.659 1303.64 1303.64" fill="#28090a"/><path d="M2572.19 1275.59c0-716.09-580.51-1296.594-1296.6-1296.594C559.504-21.004-21 559.5-21 1275.59s580.504 1296.59 1296.59 1296.59c716.09 0 1296.6-580.5 1296.6-1296.59zm21.13 0c0 727.76-589.96 1317.73-1317.73 1317.73-727.762 0-1317.73-589.97-1317.73-1317.73 0-727.762 589.968-1317.735 1317.73-1317.735 727.77 0 1317.73 589.973 1317.73 1317.735" fill="#27090a"/><path d="M2586.28 1275.59c0-723.875-586.82-1310.688-1310.69-1310.688-723.867 0-1310.684 586.813-1310.684 1310.688 0 723.87 586.817 1310.69 1310.684 1310.69 723.87 0 1310.69-586.82 1310.69-1310.69zm21.14 0c0 735.55-596.28 1331.82-1331.83 1331.82-735.543 0-1331.824-596.27-1331.824-1331.82 0-735.547 596.281-1331.828 1331.824-1331.828 735.55 0 1331.83 596.281 1331.83 1331.828" fill="#25090a"/><path d="M2600.37 1275.59c0-731.656-593.12-1324.781-1324.78-1324.781-731.652 0-1324.777 593.125-1324.777 1324.781 0 731.65 593.125 1324.78 1324.777 1324.78 731.66 0 1324.78-593.13 1324.78-1324.78zm21.14 0c0 743.33-602.59 1345.92-1345.92 1345.92-743.328 0-1345.918-602.59-1345.918-1345.92 0-743.332 602.59-1345.922 1345.918-1345.922 743.33 0 1345.92 602.59 1345.92 1345.922" fill="#24090a"/><path d="M2614.46 1275.59c0-739.438-599.43-1338.875-1338.87-1338.875-739.438 0-1338.871 599.437-1338.871 1338.875 0 739.44 599.433 1338.87 1338.871 1338.87 739.44 0 1338.87-599.43 1338.87-1338.87zm21.15 0c0 751.11-608.9 1360.01-1360.02 1360.01-751.113 0-1360.012-608.9-1360.012-1360.01 0-751.113 608.899-1360.016 1360.012-1360.016 751.12 0 1360.02 608.903 1360.02 1360.016" fill="#230809"/><path d="M2628.56 1275.59c0-747.223-605.74-1352.969-1352.97-1352.969-747.219 0-1352.965 605.746-1352.965 1352.969 0 747.22 605.746 1352.96 1352.965 1352.96 747.23 0 1352.97-605.74 1352.97-1352.96zm21.14 0c0 758.9-615.21 1374.11-1374.11 1374.11-758.895 0-1374.106-615.21-1374.106-1374.11 0-758.899 615.211-1374.11 1374.106-1374.11 758.9 0 1374.11 615.211 1374.11 1374.11" fill="#210809"/><path d="M2642.65 1275.59c0-755.008-612.05-1367.063-1367.06-1367.063-755.004 0-1367.059 612.055-1367.059 1367.063 0 755 612.055 1367.06 1367.059 1367.06 755.01 0 1367.06-612.06 1367.06-1367.06zm21.14 0c0 766.68-621.52 1388.2-1388.2 1388.2s-1388.199-621.52-1388.199-1388.2c0-766.684 621.519-1388.203 1388.199-1388.203s1388.2 621.519 1388.2 1388.203" fill="#200809"/><path d="M2656.75 1275.59c0-762.793-618.37-1381.156-1381.16-1381.156-762.789 0-1381.153 618.363-1381.153 1381.156 0 762.79 618.364 1381.15 1381.153 1381.15 762.79 0 1381.16-618.36 1381.16-1381.15zm21.13 0c0 774.46-627.82 1402.29-1402.29 1402.29-774.465 0-1402.289-627.83-1402.289-1402.29 0-774.469 627.824-1402.293 1402.289-1402.293 774.47 0 1402.29 627.824 1402.29 1402.293" fill="#1f0809"/><path d="M2670.84 1275.59c0-770.574-624.67-1395.25-1395.25-1395.25-770.57 0-1395.246 624.676-1395.246 1395.25 0 770.57 624.676 1395.25 1395.246 1395.25 770.58 0 1395.25-624.68 1395.25-1395.25zm21.14 0c0 782.25-634.14 1416.39-1416.39 1416.39S-140.793 2057.84-140.793 1275.59 493.34-140.797 1275.59-140.797 2691.98 493.34 2691.98 1275.59" fill="#1d0808"/><path d="M2684.93 1275.59c0-778.36-630.98-1409.34-1409.34-1409.34-778.356 0-1409.336 630.98-1409.336 1409.34s630.98 1409.34 1409.336 1409.34c778.36 0 1409.34-630.98 1409.34-1409.34zm21.14 0c0 790.03-640.44 1430.48-1430.48 1430.48-790.027 0-1430.477-640.45-1430.477-1430.48 0-790.031 640.45-1430.481 1430.477-1430.481 790.04 0 1430.48 640.45 1430.48 1430.481" fill="#1c0708"/><path d="M2699.02 1275.59c0-786.141-637.29-1423.434-1423.43-1423.434-786.137 0-1423.43 637.293-1423.43 1423.434 0 786.14 637.293 1423.43 1423.43 1423.43 786.14 0 1423.43-637.29 1423.43-1423.43zm21.14 0c0 797.82-646.75 1444.57-1444.57 1444.57-797.813 0-1444.57-646.75-1444.57-1444.57 0-797.817 646.757-1444.574 1444.57-1444.574 797.82 0 1444.57 646.757 1444.57 1444.574" fill="#1a0708"/><path d="M2713.12 1275.59c0-793.926-643.6-1437.528-1437.53-1437.528-793.922 0-1437.524 643.602-1437.524 1437.528 0 793.92 643.602 1437.53 1437.524 1437.53 793.93 0 1437.53-643.61 1437.53-1437.53zm21.14 0c0 805.6-653.07 1458.67-1458.67 1458.67-805.598 0-1458.664-653.07-1458.664-1458.67 0-805.602 653.066-1458.668 1458.664-1458.668 805.6 0 1458.67 653.066 1458.67 1458.668" fill="#190708"/><path d="M2727.21 1275.59c0-801.707-649.91-1451.621-1451.62-1451.621-801.707 0-1451.617 649.914-1451.617 1451.621 0 801.71 649.91 1451.62 1451.617 1451.62 801.71 0 1451.62-649.91 1451.62-1451.62zm21.14 0c0 813.38-659.37 1472.76-1472.76 1472.76-813.383 0-1472.758-659.38-1472.758-1472.76 0-813.383 659.375-1472.762 1472.758-1472.762 813.39 0 1472.76 659.379 1472.76 1472.762" fill="#180707"/><path d="M2741.3 1275.59c0-809.492-656.22-1465.715-1465.71-1465.715-809.488 0-1465.711 656.223-1465.711 1465.715 0 809.49 656.223 1465.71 1465.711 1465.71 809.49 0 1465.71-656.22 1465.71-1465.71zm21.15 0c0 821.17-665.69 1486.86-1486.86 1486.86-821.164 0-1486.852-665.69-1486.852-1486.86 0-821.168 665.688-1486.856 1486.852-1486.856 821.17 0 1486.86 665.688 1486.86 1486.856" fill="#170607"/><path d="M2755.4 1275.59c0-817.277-662.53-1479.809-1479.81-1479.809-817.274 0-1479.805 662.532-1479.805 1479.809 0 817.27 662.531 1479.81 1479.805 1479.81 817.28 0 1479.81-662.54 1479.81-1479.81zm21.14 0c0 828.95-672 1500.95-1500.95 1500.95-828.949 0-1500.945-672-1500.945-1500.95 0-828.953 671.996-1500.945 1500.945-1500.945 828.95 0 1500.95 671.992 1500.95 1500.945" fill="#160607"/><path d="M2769.49 1275.59c0-825.059-668.84-1493.899-1493.9-1493.899-825.059 0-1493.899 668.84-1493.899 1493.899 0 825.06 668.84 1493.9 1493.899 1493.9 825.06 0 1493.9-668.84 1493.9-1493.9zm21.14 0c0 836.73-678.3 1515.04-1515.04 1515.04-836.735 0-1515.039-678.31-1515.039-1515.04 0-836.735 678.304-1515.039 1515.039-1515.039 836.74 0 1515.04 678.304 1515.04 1515.039" fill="#140606"/><path d="M2783.59 1275.59c0-832.844-675.16-1507.992-1508-1507.992S-232.402 442.746-232.402 1275.59c0 832.84 675.152 1507.99 1507.992 1507.99s1508-675.15 1508-1507.99zm21.14 0c0 844.52-684.62 1529.13-1529.14 1529.13-844.516 0-1529.133-684.61-1529.133-1529.13 0-844.516 684.617-1529.133 1529.133-1529.133 844.52 0 1529.14 684.617 1529.14 1529.133" fill="#130606"/><path d="M2797.68 1275.59c0-840.629-681.46-1522.086-1522.09-1522.086-840.625 0-1522.086 681.457-1522.086 1522.086 0 840.62 681.461 1522.09 1522.086 1522.09 840.63 0 1522.09-681.47 1522.09-1522.09zm21.14 0c0 852.3-690.93 1543.23-1543.23 1543.23-852.297 0-1543.227-690.93-1543.227-1543.23 0-852.301 690.93-1543.231 1543.227-1543.231 852.3 0 1543.23 690.93 1543.23 1543.231" fill="#120506"/><path d="M2811.77 1275.59c0-848.41-687.77-1536.18-1536.18-1536.18-848.406 0-1536.18 687.77-1536.18 1536.18s687.774 1536.18 1536.18 1536.18c848.41 0 1536.18-687.77 1536.18-1536.18zm21.14 0c0 860.08-697.23 1557.32-1557.32 1557.32-860.082 0-1557.32-697.24-1557.32-1557.32 0-860.086 697.238-1557.324 1557.32-1557.324 860.09 0 1557.32 697.238 1557.32 1557.324" fill="#110506"/><path d="M2825.87 1275.59c0-856.192-694.08-1550.278-1550.28-1550.278-856.192 0-1550.274 694.086-1550.274 1550.278 0 856.19 694.082 1550.27 1550.274 1550.27 856.2 0 1550.28-694.08 1550.28-1550.27zm21.14 0c0 867.87-703.55 1571.41-1571.42 1571.41-867.867 0-1571.414-703.54-1571.414-1571.41 0-867.867 703.547-1571.418 1571.414-1571.418 867.87 0 1571.42 703.551 1571.42 1571.418" fill="#100505"/><path d="M2839.96 1275.59c0-863.977-700.39-1564.371-1564.37-1564.371-863.973 0-1564.367 700.394-1564.367 1564.371 0 863.98 700.394 1564.37 1564.367 1564.37 863.98 0 1564.37-700.39 1564.37-1564.37zm21.14 0c0 875.65-709.86 1585.51-1585.51 1585.51-875.649 0-1585.504-709.86-1585.504-1585.51 0-875.652 709.855-1585.508 1585.504-1585.508 875.65 0 1585.51 709.856 1585.51 1585.508" fill="#0f0505"/><path d="M2854.05 1275.59c0-871.762-706.7-1578.461-1578.46-1578.461-871.758 0-1578.457 706.699-1578.457 1578.461 0 871.76 706.699 1578.46 1578.457 1578.46 871.76 0 1578.46-706.7 1578.46-1578.46zm21.14 0c0 883.43-716.16 1599.6-1599.6 1599.6-883.434 0-1599.598-716.17-1599.598-1599.6 0-883.438 716.164-1599.602 1599.598-1599.602 883.44 0 1599.6 716.164 1599.6 1599.602" fill="#0d0405"/><path d="M2868.14 1275.59c0-879.543-713-1592.555-1592.55-1592.555-879.543 0-1592.551 713.012-1592.551 1592.555 0 879.54 713.008 1592.55 1592.551 1592.55 879.55 0 1592.55-713.01 1592.55-1592.55zm21.15 0c0 891.22-722.48 1613.7-1613.7 1613.7-891.219 0-1613.692-722.48-1613.692-1613.7 0-891.219 722.473-1613.695 1613.692-1613.695 891.22 0 1613.7 722.476 1613.7 1613.695" fill="#0d0405"/><path d="M2882.24 1275.59c0-887.328-719.32-1606.649-1606.65-1606.649-887.324 0-1606.645 719.321-1606.645 1606.649 0 887.33 719.321 1606.65 1606.645 1606.65 887.33 0 1606.65-719.32 1606.65-1606.65zm21.14 0c0 899-728.78 1627.79-1627.79 1627.79-899 0-1627.785-728.79-1627.785-1627.79 0-899.004 728.785-1627.789 1627.785-1627.789 899.01 0 1627.79 728.785 1627.79 1627.789" fill="#0b0404"/><path d="M2896.33 1275.59c0-895.113-725.63-1620.742-1620.74-1620.742S-345.148 380.477-345.148 1275.59c0 895.11 725.628 1620.74 1620.738 1620.74s1620.74-725.63 1620.74-1620.74zm21.14 0c0 906.79-735.09 1641.88-1641.88 1641.88-906.781 0-1641.879-735.09-1641.879-1641.88 0-906.785 735.098-1641.883 1641.879-1641.883 906.79 0 1641.88 735.098 1641.88 1641.883" fill="#0a0404"/><path d="M2910.43 1275.59c0-902.895-731.94-1634.836-1634.84-1634.836-902.895 0-1634.832 731.941-1634.832 1634.836 0 902.89 731.937 1634.84 1634.832 1634.84 902.9 0 1634.84-731.95 1634.84-1634.84zm21.14 0c0 914.57-741.41 1655.98-1655.98 1655.98-914.567 0-1655.973-741.41-1655.973-1655.98S361.023-380.387 1275.59-380.387c914.57 0 1655.98 741.407 1655.98 1655.977" fill="#090304"/><path d="M2924.52 1275.59c0-910.676-738.25-1648.93-1648.93-1648.93-910.676 0-1648.926 738.254-1648.926 1648.93 0 910.68 738.25 1648.93 1648.926 1648.93 910.68 0 1648.93-738.25 1648.93-1648.93zm21.14 0c0 922.35-747.71 1670.07-1670.07 1670.07-922.352 0-1670.067-747.72-1670.067-1670.07 0-922.352 747.715-1670.067 1670.067-1670.067 922.36 0 1670.07 747.715 1670.07 1670.067" fill="#080303"/><path d="M2938.61 1275.59c0-918.461-744.56-1663.024-1663.02-1663.024-918.457 0-1663.02 744.563-1663.02 1663.024 0 918.46 744.563 1663.02 1663.02 1663.02 918.46 0 1663.02-744.56 1663.02-1663.02zm21.14 0c0 930.14-754.02 1684.16-1684.16 1684.16-930.133 0-1684.16-754.02-1684.16-1684.16 0-930.137 754.027-1684.16 1684.16-1684.16 930.14 0 1684.16 754.023 1684.16 1684.16" fill="#080303"/><path d="M2952.71 1275.59c0-926.246-750.87-1677.113-1677.12-1677.113-926.242 0-1677.113 750.867-1677.113 1677.113 0 926.24 750.871 1677.11 1677.113 1677.11 926.25 0 1677.12-750.87 1677.12-1677.11zm21.14 0c0 937.92-760.34 1698.25-1698.26 1698.25-937.918 0-1698.254-760.33-1698.254-1698.25 0-937.922 760.336-1698.254 1698.254-1698.254 937.92 0 1698.26 760.332 1698.26 1698.254" fill="#070203"/><path d="M2966.8 1275.59c0-934.027-757.18-1691.207-1691.21-1691.207-934.027 0-1691.207 757.18-1691.207 1691.207 0 934.03 757.18 1691.21 1691.207 1691.21 934.03 0 1691.21-757.18 1691.21-1691.21zm21.14 0c0 945.7-766.64 1712.35-1712.35 1712.35-945.703 0-1712.348-766.65-1712.348-1712.35 0-945.707 766.645-1712.348 1712.348-1712.348 945.71 0 1712.35 766.641 1712.35 1712.348" fill="#060202"/><path d="M2980.89 1275.59c0-941.813-763.48-1705.301-1705.3-1705.301-941.809 0-1705.301 763.488-1705.301 1705.301 0 941.81 763.492 1705.3 1705.301 1705.3 941.82 0 1705.3-763.49 1705.3-1705.3zm21.15 0c0 953.49-772.96 1726.44-1726.45 1726.44-953.485 0-1726.442-772.95-1726.442-1726.44 0-953.488 772.957-1726.442 1726.442-1726.442 953.49 0 1726.45 772.954 1726.45 1726.442" fill="#050202"/><path d="M2994.99 1275.59c0-949.598-769.8-1719.395-1719.4-1719.395-949.594 0-1719.395 769.797-1719.395 1719.395 0 949.6 769.801 1719.39 1719.395 1719.39 949.6 0 1719.4-769.79 1719.4-1719.39zm21.14 0c0 961.27-779.27 1740.54-1740.54 1740.54S-464.945 2236.86-464.945 1275.59c0-961.274 779.265-1740.535 1740.535-1740.535S3016.13 314.316 3016.13 1275.59" fill="#040202"/><path d="M3009.08 1275.59c0-957.383-776.11-1733.488-1733.49-1733.488-957.379 0-1733.488 776.105-1733.488 1733.488 0 957.38 776.109 1733.49 1733.488 1733.49 957.38 0 1733.49-776.11 1733.49-1733.49zm21.14 0c0 969.05-785.58 1754.62-1754.63 1754.62-969.051 0-1754.625-785.57-1754.625-1754.62 0-969.055 785.574-1754.629 1754.625-1754.629 969.05 0 1754.63 785.574 1754.63 1754.629" fill="#030101"/><path d="M3023.18 1275.59c0-965.164-782.43-1747.582-1747.59-1747.582S-471.992 310.426-471.992 1275.59c0 965.16 782.422 1747.58 1747.582 1747.58s1747.59-782.42 1747.59-1747.58zm21.13 0c0 976.84-791.88 1768.72-1768.72 1768.72-976.836 0-1768.719-791.88-1768.719-1768.72S298.754-493.133 1275.59-493.133c976.84 0 1768.72 791.883 1768.72 1768.723" fill="#020101"/><path d="M3037.27 1275.59c0-972.945-788.73-1761.676-1761.68-1761.676-972.942 0-1761.672 788.731-1761.672 1761.676 0 972.95 788.73 1761.67 1761.672 1761.67 972.95 0 1761.68-788.72 1761.68-1761.67zm21.14 0c0 984.62-798.2 1782.82-1782.82 1782.82-984.617 0-1782.813-798.2-1782.813-1782.82 0-984.621 798.196-1782.817 1782.813-1782.817 984.62 0 1782.82 798.196 1782.82 1782.817" fill="#010101"/><path d="M3051.36 1275.59c0-980.731-795.04-1775.77-1775.77-1775.77-980.727 0-1775.766 795.039-1775.766 1775.77 0 980.73 795.039 1775.77 1775.766 1775.77 980.73 0 1775.77-795.04 1775.77-1775.77zm21.14 0c0 992.41-804.5 1796.91-1796.91 1796.91-992.402 0-1796.906-804.5-1796.906-1796.91 0-992.406 804.504-1796.91 1796.906-1796.91 992.41 0 1796.91 804.504 1796.91 1796.91" fill="#010000"/><path d="M3065.45 1275.59c0-988.516-801.34-1789.863-1789.86-1789.863-988.512 0-1789.86 801.347-1789.86 1789.863 0 988.51 801.348 1789.86 1789.86 1789.86 988.52 0 1789.86-801.35 1789.86-1789.86zm14.1 0c0 996.3-807.66 1803.96-1803.96 1803.96-996.297 0-1803.953-807.66-1803.953-1803.96 0-996.297 807.656-1803.957 1803.953-1803.957 996.3 0 1803.96 807.66 1803.96 1803.957"/></g><path d="M188.58 150.685h-15.563l-1.797 7.025h-21.665l14.561-56.386h33.365l14.563 56.386h-21.665zm-47.075 62.07h-15.566l-1.797 7.024h-21.665l14.562-56.386h33.365l14.562 56.386h-21.665zm-75.046-11.358l-4.742 18.382h-23.69l-14.562-56.387H45.13l4.742 18.383 4.74-18.383h23.692l4.74 18.383 4.742-18.383h21.665L94.89 219.78H71.2zM237.9 141.029v16.681h-20.969v-25.95h-.04v-23.907h.04v-6.53h39.512c5.301 0 9.81 1.993 13.607 5.655 3.799 3.665 5.862 8.095 5.862 13.406 0 3.871-1.152 7.396-3.333 10.581-2.15 3.144-4.975 5.48-8.515 6.884.775 1.299 1.876 2.109 3.436 2.109h27.574v17.752H261.28c-5.482 0-10.213-3.299-13.913-7.061zm-125.35-21.954H82.053c-.96 0-1.264.627-1.264 1.521 0 .161.031.395.194.511l9.995 7.64c4.229 3.23 6.259 7.548 6.259 12.852 0 4.629-1.921 8.387-5.382 11.401-3.463 3.016-7.462 4.71-12.083 4.71H23.706v-17.753h45.561c.981 0 1.264-.693 1.264-1.59 0-.158-.036-.327-.183-.433l-9.314-6.943c-4.082-3.041-5.499-7.577-5.499-12.502 0-4.77 1.882-8.749 5.279-12.045 3.373-3.273 7.381-5.12 12.116-5.12h79.594v17.751h-19.005v38.635h-20.97zm80.383 84.022v16.682h-20.97v-25.95h-.04V169.92h.04v-6.529h39.51c5.303 0 9.81 1.994 13.61 5.654 3.8 3.665 5.86 8.096 5.86 13.408 0 3.87-1.152 7.396-3.332 10.581-2.151 3.144-4.974 5.48-8.516 6.884.776 1.298 1.877 2.108 3.436 2.108h28.652c.982 0 1.264-.694 1.264-1.59 0-.158-.037-.33-.189-.436l-9.31-6.94c-4.08-3.041-5.498-7.577-5.498-12.503 0-4.77 1.883-8.75 5.281-12.044 3.373-3.273 7.381-5.121 12.115-5.121h40.347v17.752h-31.225c-.96 0-1.263.628-1.263 1.52 0 .151.027.391.188.506l10.002 7.644c4.227 3.23 6.257 7.55 6.257 12.852 0 4.63-1.921 8.389-5.38 11.402-3.464 3.017-7.462 4.71-12.084 4.71H216.31c-5.482 0-10.213-3.298-13.915-7.061zm-8.698-68.59l-4.071-15.806-4.072 15.805zm-45.805 62.284l-4.071-15.806-4.072 15.806zm99.701-72.39h12.785c1.111 0 2.036-.441 2.81-1.228.79-.803 1.218-1.76 1.218-2.892 0-1.131-.428-2.089-1.217-2.891-.775-.786-1.7-1.229-2.811-1.229H238.13zm-44.971 62.07h12.785c1.111 0 2.037-.442 2.811-1.229.79-.802 1.218-1.76 1.218-2.892 0-1.131-.428-2.089-1.218-2.89-.774-.787-1.7-1.229-2.811-1.229H193.16z" fill="#fff200"/><g clip-path="url(#b)" transform="matrix(.125 0 0 -.125 0 320)"><path d="M1289.98 1406.56c0 7.99-6.48 14.47-14.47 14.47s-14.47-6.48-14.47-14.47 6.48-14.47 14.47-14.47 14.47 6.48 14.47 14.47" fill="#fff200"/><path d="M1285.16 1406.56c0-5.33-4.32-9.65-9.65-9.65s-9.65 4.32-9.65 9.65 4.32 9.65 9.65 9.65 9.65-4.32 9.65-9.65zm14.47 0c0 13.32-10.8 24.12-24.12 24.12s-24.12-10.8-24.12-24.12 10.8-24.12 24.12-24.12 24.12 10.8 24.12 24.12" fill="#fff100"/><path d="M1294.81 1406.56c0-10.65-8.64-19.29-19.3-19.29-10.65 0-19.29 8.64-19.29 19.29s8.64 19.3 19.29 19.3c10.66 0 19.3-8.65 19.3-19.3zm14.46 0c0 18.65-15.11 33.76-33.76 33.76s-33.76-15.11-33.76-33.76 15.11-33.76 33.76-33.76 33.76 15.11 33.76 33.76" fill="#fff000"/><path d="M1304.45 1406.56c0-15.98-12.95-28.94-28.94-28.94-15.98 0-28.94 12.96-28.94 28.94s12.96 28.94 28.94 28.94c15.99 0 28.94-12.96 28.94-28.94zm14.48 0c0 23.98-19.44 43.41-43.42 43.41-23.97 0-43.41-19.43-43.41-43.41 0-23.97 19.44-43.41 43.41-43.41 23.98 0 43.42 19.44 43.42 43.41" fill="#ffef00"/><path d="M1314.1 1406.56c0-21.31-17.28-38.59-38.59-38.59s-38.59 17.28-38.59 38.59c0 21.32 17.28 38.59 38.59 38.59s38.59-17.27 38.59-38.59zm14.47 0c0 29.3-23.75 53.06-53.06 53.06-29.3 0-53.06-23.76-53.06-53.06s23.76-53.06 53.06-53.06c29.31 0 53.06 23.76 53.06 53.06" fill="#ffef01"/><path d="M1323.75 1406.56c0-26.64-21.6-48.24-48.24-48.24s-48.23 21.6-48.23 48.24 21.59 48.24 48.23 48.24 48.24-21.6 48.24-48.24zm14.46 0c0 34.63-28.07 62.71-62.7 62.71s-62.71-28.08-62.71-62.71 28.08-62.7 62.71-62.7 62.7 28.07 62.7 62.7" fill="#ffed01"/><path d="M1333.39 1406.56c0-31.97-25.91-57.88-57.88-57.88-31.96 0-57.88 25.91-57.88 57.88s25.92 57.88 57.88 57.88c31.97 0 57.88-25.91 57.88-57.88zm14.47 0c0 39.96-32.39 72.35-72.35 72.35s-72.35-32.39-72.35-72.35 32.39-72.35 72.35-72.35 72.35 32.39 72.35 72.35" fill="#ffec01"/><path d="M1343.04 1406.56c0-37.29-30.24-67.53-67.53-67.53-37.3 0-67.53 30.24-67.53 67.53 0 37.3 30.23 67.53 67.53 67.53 37.29 0 67.53-30.23 67.53-67.53zm14.47 0c0 45.29-36.71 82-82 82-45.28 0-82-36.71-82-82s36.72-82 82-82c45.29 0 82 36.71 82 82" fill="#feeb01"/><path d="M1352.69 1406.56c0-42.62-34.56-77.17-77.18-77.17s-77.17 34.55-77.17 77.17 34.55 77.17 77.17 77.17 77.18-34.55 77.18-77.17zm14.47 0c0 50.62-41.03 91.65-91.65 91.65s-91.65-41.03-91.65-91.65c0-50.61 41.03-91.65 91.65-91.65s91.65 41.04 91.65 91.65" fill="#feea01"/><path d="M1362.33 1406.56c0-47.95-38.87-86.82-86.82-86.82s-86.82 38.87-86.82 86.82 38.87 86.82 86.82 86.82 86.82-38.87 86.82-86.82zm14.47 0c0 55.94-45.35 101.29-101.29 101.29s-101.29-45.35-101.29-101.29 45.35-101.29 101.29-101.29 101.29 45.35 101.29 101.29" fill="#feea01"/><path d="M1371.98 1406.56c0-53.28-43.19-96.47-96.47-96.47s-96.47 43.19-96.47 96.47 43.19 96.47 96.47 96.47 96.47-43.19 96.47-96.47zm14.47 0c0 61.27-49.67 110.94-110.94 110.94s-110.94-49.67-110.94-110.94 49.67-110.94 110.94-110.94 110.94 49.67 110.94 110.94" fill="#fee902"/><path d="M1381.63 1406.56c0-58.61-47.51-106.11-106.12-106.11-58.6 0-106.12 47.5-106.12 106.11s47.52 106.12 106.12 106.12c58.61 0 106.12-47.51 106.12-106.12zm14.47 0c0 66.6-53.99 120.59-120.59 120.59s-120.58-53.99-120.58-120.59 53.98-120.59 120.58-120.59 120.59 53.99 120.59 120.59" fill="#fee802"/><path d="M1391.28 1406.56c0-63.93-51.83-115.76-115.77-115.76s-115.76 51.83-115.76 115.76c0 63.94 51.82 115.76 115.76 115.76s115.77-51.82 115.77-115.76zm14.47 0c0 71.92-58.31 130.23-130.24 130.23-71.92 0-130.23-58.31-130.23-130.23 0-71.93 58.31-130.23 130.23-130.23 71.93 0 130.24 58.3 130.24 130.23" fill="#fee702"/><path d="M1400.92 1406.56c0-69.26-56.15-125.41-125.41-125.41s-125.41 56.15-125.41 125.41 56.15 125.41 125.41 125.41 125.41-56.15 125.41-125.41zm14.47 0c0 77.26-62.62 139.88-139.88 139.88-77.25 0-139.88-62.62-139.88-139.88 0-77.25 62.63-139.88 139.88-139.88 77.26 0 139.88 62.63 139.88 139.88" fill="#fee502"/><path d="M1410.57 1406.56c0-74.59-60.47-135.06-135.06-135.06s-135.06 60.47-135.06 135.06 60.47 135.06 135.06 135.06 135.06-60.47 135.06-135.06zm14.47 0c0 82.58-66.95 149.53-149.53 149.53s-149.53-66.95-149.53-149.53 66.95-149.53 149.53-149.53 149.53 66.95 149.53 149.53" fill="#fee502"/><path d="M1420.22 1406.56c0-79.92-64.79-144.7-144.71-144.7s-144.7 64.78-144.7 144.7 64.78 144.71 144.7 144.71 144.71-64.79 144.71-144.71zm14.46 0c0 87.91-71.26 159.18-159.17 159.18s-159.17-71.27-159.17-159.18 71.26-159.17 159.17-159.17 159.17 71.26 159.17 159.17" fill="#fee402"/><path d="M1429.86 1406.56c0-85.24-69.1-154.35-154.35-154.35-85.24 0-154.35 69.11-154.35 154.35s69.11 154.35 154.35 154.35c85.25 0 154.35-69.11 154.35-154.35zm14.48 0c0 93.24-75.59 168.82-168.83 168.82s-168.82-75.58-168.82-168.82 75.58-168.82 168.82-168.82 168.83 75.58 168.83 168.82" fill="#fee303"/><path d="M1439.51 1406.56c0-90.57-73.43-164-164-164s-164 73.43-164 164c0 90.58 73.43 164 164 164s164-73.42 164-164zm14.47 0c0 98.57-79.9 178.47-178.47 178.47-98.56 0-178.47-79.9-178.47-178.47 0-98.56 79.91-178.47 178.47-178.47 98.57 0 178.47 79.91 178.47 178.47" fill="#fee203"/><path d="M1449.16 1406.56c0-95.9-77.75-173.65-173.65-173.65s-173.64 77.75-173.64 173.65 77.74 173.65 173.64 173.65 173.65-77.75 173.65-173.65zm14.47 0c0 103.9-84.23 188.12-188.12 188.12s-188.12-84.22-188.12-188.12c0-103.89 84.23-188.11 188.12-188.11s188.12 84.22 188.12 188.11" fill="#fee103"/><path d="M1458.8 1406.56c0-101.23-82.06-183.29-183.29-183.29s-183.29 82.06-183.29 183.29 82.06 183.3 183.29 183.3 183.29-82.07 183.29-183.3zm14.47 0c0 109.22-88.54 197.76-197.76 197.76s-197.76-88.54-197.76-197.76 88.54-197.76 197.76-197.76 197.76 88.54 197.76 197.76" fill="#fee003"/><path d="M1468.45 1406.56c0-106.56-86.38-192.94-192.94-192.94s-192.94 86.38-192.94 192.94 86.38 192.94 192.94 192.94 192.94-86.38 192.94-192.94zm14.47 0c0 114.55-92.86 207.41-207.41 207.41s-207.41-92.86-207.41-207.41 92.86-207.41 207.41-207.41 207.41 92.86 207.41 207.41" fill="#fde003"/><path d="M1478.1 1406.56c0-111.88-90.7-202.58-202.59-202.58-111.88 0-202.58 90.7-202.58 202.58 0 111.89 90.7 202.58 202.58 202.58 111.89 0 202.59-90.69 202.59-202.58zm14.47 0c0 119.88-97.18 217.06-217.06 217.06s-217.06-97.18-217.06-217.06 97.18-217.06 217.06-217.06 217.06 97.18 217.06 217.06" fill="#fddf03"/><path d="M1487.74 1406.56c0-117.21-95.02-212.23-212.23-212.23s-212.23 95.02-212.23 212.23 95.02 212.23 212.23 212.23 212.23-95.02 212.23-212.23zm14.47 0c0 125.21-101.49 226.7-226.7 226.7-125.2 0-226.7-101.49-226.7-226.7 0-125.2 101.5-226.7 226.7-226.7 125.21 0 226.7 101.5 226.7 226.7" fill="#fddd04"/><path d="M1497.39 1406.56c0-122.54-99.34-221.88-221.88-221.88s-221.88 99.34-221.88 221.88 99.34 221.88 221.88 221.88 221.88-99.34 221.88-221.88zm14.47 0c0 130.53-105.82 236.35-236.35 236.35s-236.35-105.82-236.35-236.35 105.82-236.35 236.35-236.35 236.35 105.82 236.35 236.35" fill="#fddc05"/><path d="M1507.04 1406.56c0-127.87-103.66-231.52-231.53-231.52s-231.53 103.65-231.53 231.52 103.66 231.53 231.53 231.53 231.53-103.66 231.53-231.53zm14.47 0c0 135.86-110.14 246-246 246s-245.99-110.14-245.99-246 110.13-246 245.99-246 246 110.14 246 246" fill="#fddb05"/><path d="M1516.69 1406.56c0-133.19-107.98-241.17-241.18-241.17s-241.17 107.98-241.17 241.17c0 133.2 107.97 241.17 241.17 241.17s241.18-107.97 241.18-241.17zm14.47 0c0 141.19-114.46 255.65-255.65 255.65s-255.64-114.46-255.64-255.65 114.45-255.64 255.64-255.64 255.65 114.45 255.65 255.64" fill="#fddb05"/><path d="M1526.33 1406.56c0-138.52-112.29-250.82-250.82-250.82-138.52 0-250.82 112.3-250.82 250.82 0 138.53 112.3 250.82 250.82 250.82 138.53 0 250.82-112.29 250.82-250.82zm14.47 0c0 146.52-118.77 265.29-265.29 265.29s-265.29-118.77-265.29-265.29c0-146.51 118.77-265.29 265.29-265.29s265.29 118.78 265.29 265.29" fill="#fdda05"/><path d="M1535.98 1406.56c0-143.85-116.62-260.47-260.47-260.47s-260.47 116.62-260.47 260.47 116.62 260.47 260.47 260.47 260.47-116.62 260.47-260.47zm14.47 0c0 151.85-123.09 274.94-274.94 274.94-151.84 0-274.94-123.09-274.94-274.94s123.1-274.94 274.94-274.94c151.85 0 274.94 123.09 274.94 274.94" fill="#fdd905"/><path d="M1545.63 1406.56c0-149.18-120.94-270.11-270.12-270.11s-270.11 120.93-270.11 270.11 120.93 270.12 270.11 270.12 270.12-120.94 270.12-270.12zm14.46 0c0 157.17-127.41 284.59-284.58 284.59s-284.584-127.42-284.584-284.59 127.414-284.58 284.584-284.58 284.58 127.41 284.58 284.58" fill="#fdd805"/><path d="M1555.27 1406.56c0-154.51-125.25-279.76-279.76-279.76s-279.76 125.25-279.76 279.76 125.25 279.76 279.76 279.76 279.76-125.25 279.76-279.76zm14.48 0c0 162.5-131.74 294.23-294.24 294.23s-294.229-131.73-294.229-294.23 131.729-294.23 294.229-294.23 294.24 131.73 294.24 294.23" fill="#fdd705"/><path d="M1564.92 1406.56c0-159.83-129.57-289.41-289.41-289.41-159.83 0-289.408 129.58-289.408 289.41 0 159.84 129.578 289.41 289.408 289.41 159.84 0 289.41-129.57 289.41-289.41zm14.47 0c0 167.83-136.05 303.88-303.88 303.88s-303.877-136.05-303.877-303.88 136.047-303.88 303.877-303.88 303.88 136.05 303.88 303.88" fill="#fdd506"/><path d="M1574.57 1406.56c0-165.17-133.89-299.06-299.06-299.06-165.16 0-299.053 133.89-299.053 299.06s133.893 299.06 299.053 299.06c165.17 0 299.06-133.89 299.06-299.06zm14.47 0c0 173.16-140.37 313.53-313.53 313.53-173.15 0-313.526-140.37-313.526-313.53 0-173.15 140.376-313.52 313.526-313.52 173.16 0 313.53 140.37 313.53 313.52" fill="#fdd506"/><path d="M1584.21 1406.56c0-170.49-138.21-308.7-308.7-308.7s-308.701 138.21-308.701 308.7 138.211 308.71 308.701 308.71 308.7-138.22 308.7-308.71zm14.47 0c0 178.48-144.68 323.17-323.17 323.17-178.48 0-323.17-144.69-323.17-323.17s144.69-323.17 323.17-323.17c178.49 0 323.17 144.69 323.17 323.17" fill="#fcd406"/><path d="M1593.86 1406.56c0-175.82-142.53-318.35-318.35-318.35s-318.35 142.53-318.35 318.35 142.53 318.35 318.35 318.35 318.35-142.53 318.35-318.35zm14.47 0c0 183.81-149.01 332.82-332.82 332.82s-332.819-149.01-332.819-332.82 149.009-332.82 332.819-332.82 332.82 149.01 332.82 332.82" fill="#fcd306"/><path d="M1603.51 1406.56c0-181.15-146.85-328-328-328s-327.994 146.85-327.994 328 146.844 327.99 327.994 327.99 328-146.84 328-327.99zm14.47 0c0 189.14-153.33 342.47-342.47 342.47s-342.467-153.33-342.467-342.47 153.327-342.47 342.467-342.47 342.47 153.33 342.47 342.47" fill="#fcd206"/><path d="M1613.16 1406.56c0-186.47-151.18-337.64-337.65-337.64s-337.643 151.17-337.643 337.64c0 186.48 151.173 337.64 337.643 337.64s337.65-151.16 337.65-337.64zm14.47 0c0 194.47-157.65 352.11-352.12 352.11s-352.112-157.64-352.112-352.11 157.642-352.11 352.112-352.11 352.12 157.64 352.12 352.11" fill="#fcd106"/><path d="M1622.8 1406.56c0-191.8-155.48-347.29-347.29-347.29-191.8 0-347.287 155.49-347.287 347.29s155.487 347.29 347.287 347.29c191.81 0 347.29-155.49 347.29-347.29zm14.47 0c0 199.8-161.97 361.76-361.76 361.76s-361.76-161.96-361.76-361.76c0-199.79 161.97-361.76 361.76-361.76s361.76 161.97 361.76 361.76" fill="#fcd007"/><path d="M1632.45 1406.56c0-197.13-159.81-356.93-356.94-356.93s-356.936 159.8-356.936 356.93 159.806 356.94 356.936 356.94 356.94-159.81 356.94-356.94zm14.47 0c0 205.12-166.29 371.41-371.41 371.41s-371.405-166.29-371.405-371.41 166.285-371.41 371.405-371.41 371.41 166.29 371.41 371.41" fill="#fcd007"/><path d="M1642.1 1406.56c0-202.46-164.13-366.58-366.59-366.58s-366.584 164.12-366.584 366.58 164.124 366.58 366.584 366.58 366.59-164.12 366.59-366.58zm14.47 0c0 210.45-170.61 381.06-381.06 381.06s-381.053-170.61-381.053-381.06 170.603-381.05 381.053-381.05 381.06 170.6 381.06 381.05" fill="#fccf07"/><path d="M1651.74 1406.56c0-207.79-168.44-376.23-376.23-376.23-207.78 0-376.229 168.44-376.229 376.23s168.449 376.23 376.229 376.23c207.79 0 376.23-168.44 376.23-376.23zm14.47 0c0 215.78-174.92 390.7-390.7 390.7s-390.701-174.92-390.701-390.7 174.921-390.7 390.701-390.7 390.7 174.92 390.7 390.7" fill="#fccd07"/><path d="M1661.39 1406.56c0-213.11-172.76-385.88-385.88-385.88-213.11 0-385.877 172.77-385.877 385.88 0 213.12 172.767 385.88 385.877 385.88 213.12 0 385.88-172.76 385.88-385.88zm14.47 0c0 221.11-179.24 400.35-400.35 400.35-221.1 0-400.346-179.24-400.346-400.35s179.246-400.35 400.346-400.35c221.11 0 400.35 179.24 400.35 400.35" fill="#fccc07"/><path d="M1671.04 1406.56c0-218.44-177.09-395.52-395.53-395.52s-395.522 177.08-395.522 395.52 177.082 395.53 395.522 395.53 395.53-177.09 395.53-395.53zm14.47 0c0 226.43-183.56 410-410 410-226.43 0-409.994-183.57-409.994-410s183.564-409.994 409.994-409.994c226.44 0 410 183.564 410 409.994" fill="#fccb07"/><path d="M1680.68 1406.56c0-223.77-181.4-405.17-405.17-405.17s-405.17 181.4-405.17 405.17 181.4 405.17 405.17 405.17 405.17-181.4 405.17-405.17zm14.48 0c0 231.76-187.89 419.64-419.65 419.64s-419.643-187.88-419.643-419.64 187.883-419.642 419.643-419.642 419.65 187.882 419.65 419.642" fill="#fccb08"/><path d="M1690.33 1406.56c0-229.1-185.72-414.818-414.82-414.818S860.691 1177.46 860.691 1406.56s185.719 414.82 414.819 414.82 414.82-185.72 414.82-414.82zm14.47 0c0 237.09-192.2 429.29-429.29 429.29s-429.287-192.2-429.287-429.29 192.197-429.287 429.287-429.287 429.29 192.197 429.29 429.287" fill="#fcca08"/><path d="M1699.98 1406.56c0-234.43-190.04-424.466-424.47-424.466-234.42 0-424.463 190.036-424.463 424.466s190.043 424.47 424.463 424.47c234.43 0 424.47-190.04 424.47-424.47zm14.47 0c0 242.42-196.52 438.94-438.94 438.94s-438.936-196.52-438.936-438.94 196.516-438.935 438.936-438.935 438.94 196.515 438.94 438.935" fill="#fcc908"/><path d="M1709.63 1406.56c0-239.76-194.36-434.111-434.12-434.111-239.75 0-434.112 194.351-434.112 434.111 0 239.75 194.362 434.12 434.112 434.12 239.76 0 434.12-194.37 434.12-434.12zm14.46 0c0 247.75-200.83 448.58-448.58 448.58-247.74 0-448.58-200.83-448.58-448.58 0-247.74 200.84-448.583 448.58-448.583 247.75 0 448.58 200.843 448.58 448.583" fill="#fbc808"/><path d="M1719.27 1406.56c0-245.08-198.68-443.759-443.76-443.759S831.75 1161.48 831.75 1406.56s198.68 443.76 443.76 443.76 443.76-198.68 443.76-443.76zm14.47 0c0 253.07-205.15 458.23-458.23 458.23-253.07 0-458.229-205.16-458.229-458.23s205.159-458.228 458.229-458.228c253.08 0 458.23 205.158 458.23 458.228" fill="#fbc708"/><path d="M1728.92 1406.56c0-250.41-203-453.408-453.41-453.408S822.105 1156.15 822.105 1406.56s202.995 453.41 453.405 453.41 453.41-203 453.41-453.41zm14.47 0c0 258.4-209.48 467.88-467.88 467.88s-467.877-209.48-467.877-467.88 209.477-467.876 467.877-467.876 467.88 209.476 467.88 467.876" fill="#fbc608"/><path d="M1738.57 1406.56c0-255.74-207.32-463.052-463.06-463.052S812.457 1150.82 812.457 1406.56s207.313 463.05 463.053 463.05 463.06-207.31 463.06-463.05zm14.47 0c0 263.73-213.8 477.53-477.53 477.53s-477.522-213.8-477.522-477.53 213.792-477.525 477.522-477.525 477.53 213.795 477.53 477.525" fill="#fbc508"/><path d="M1748.21 1406.56c0-261.06-211.63-472.701-472.7-472.701-261.06 0-472.697 211.641-472.697 472.701 0 261.07 211.637 472.7 472.697 472.7 261.07 0 472.7-211.63 472.7-472.7zm14.47 0c0 269.06-218.11 487.17-487.17 487.17-269.05 0-487.17-218.11-487.17-487.17s218.12-487.169 487.17-487.169c269.06 0 487.17 218.109 487.17 487.169" fill="#fbc409"/><path d="M1757.86 1406.56c0-266.39-215.95-482.345-482.35-482.345-266.39 0-482.346 215.955-482.346 482.345s215.956 482.35 482.346 482.35c266.4 0 482.35-215.96 482.35-482.35zm14.47 0c0 274.39-222.44 496.82-496.82 496.82s-496.815-222.43-496.815-496.82c0-274.38 222.435-496.818 496.815-496.818s496.82 222.438 496.82 496.818" fill="#fbc309"/><path d="M1767.51 1406.56c0-271.72-220.28-491.994-492-491.994S783.516 1134.84 783.516 1406.56s220.274 491.99 491.994 491.99 492-220.27 492-491.99zm14.47 0c0 279.71-226.75 506.47-506.47 506.47-279.709 0-506.463-226.76-506.463-506.47s226.754-506.462 506.463-506.462c279.72 0 506.47 226.752 506.47 506.462" fill="#fbc209"/><path d="M1777.15 1406.56c0-277.05-224.59-501.642-501.64-501.642-277.049 0-501.639 224.592-501.639 501.642s224.59 501.64 501.639 501.64c277.05 0 501.64-224.59 501.64-501.64zm14.48 0c0 285.04-231.08 516.11-516.12 516.11-285.041 0-516.112-231.07-516.112-516.11s231.071-516.111 516.112-516.111c285.04 0 516.12 231.071 516.12 516.111" fill="#fbc109"/><path d="M1786.8 1406.56c0-282.38-228.91-511.287-511.29-511.287-282.373 0-511.287 228.907-511.287 511.287s228.914 511.29 511.287 511.29c282.38 0 511.29-228.91 511.29-511.29zm14.47 0c0 290.37-235.39 525.76-525.76 525.76-290.369 0-525.756-235.39-525.756-525.76s235.387-525.759 525.756-525.759c290.37 0 525.76 235.389 525.76 525.759" fill="#fbc009"/><path d="M1796.45 1406.56c0-287.7-233.24-520.935-520.94-520.935-287.705 0-520.932 233.235-520.932 520.935 0 287.71 233.227 520.94 520.932 520.94 287.7 0 520.94-233.23 520.94-520.94zm14.47 0c0 295.7-239.71 535.41-535.41 535.41-295.694 0-535.405-239.71-535.405-535.41s239.711-535.404 535.405-535.404c295.7 0 535.41 239.704 535.41 535.404" fill="#fbc009"/><path d="M1806.09 1406.56c0-293.03-237.55-530.58-530.58-530.58s-530.58 237.55-530.58 530.58 237.55 530.58 530.58 530.58 530.58-237.55 530.58-530.58zm14.48 0c0 301.03-244.03 545.05-545.06 545.05-301.026 0-545.053-244.02-545.053-545.05 0-301.02 244.027-545.052 545.053-545.052 301.03 0 545.06 244.032 545.06 545.052" fill="#fbbf09"/><path d="M1815.74 1406.56c0-298.36-241.87-540.228-540.23-540.228-298.358 0-540.229 241.868-540.229 540.228s241.871 540.23 540.229 540.23c298.36 0 540.23-241.87 540.23-540.23zm14.47 0c0 306.35-248.35 554.7-554.7 554.7s-554.697-248.35-554.697-554.7S969.16 851.863 1275.51 851.863s554.7 248.347 554.7 554.697" fill="#fbbd0a"/><path d="M1825.39 1406.56c0-303.69-246.19-549.876-549.88-549.876-303.686 0-549.873 246.186-549.873 549.876s246.187 549.88 549.873 549.88c303.69 0 549.88-246.19 549.88-549.88zm14.47 0c0 311.68-252.67 564.35-564.35 564.35-311.678 0-564.346-252.67-564.346-564.35s252.668-564.345 564.346-564.345c311.68 0 564.35 252.665 564.35 564.345" fill="#fabc0a"/><path d="M1835.04 1406.56c0-309.02-250.51-559.521-559.53-559.521-309.014 0-559.522 250.501-559.522 559.521 0 309.01 250.508 559.53 559.522 559.53 309.02 0 559.53-250.52 559.53-559.53zm14.46 0c0 317.01-256.98 573.99-573.99 573.99-317.006 0-573.99-256.98-573.99-573.99s256.984-573.994 573.99-573.994c317.01 0 573.99 256.984 573.99 573.994" fill="#fabb0a"/><path d="M1844.68 1406.56c0-314.34-254.82-569.169-569.17-569.169-314.342 0-569.17 254.829-569.17 569.169 0 314.35 254.828 569.17 569.17 569.17 314.35 0 569.17-254.82 569.17-569.17zm14.47 0c0 322.33-261.3 583.64-583.64 583.64-322.334 0-583.639-261.31-583.639-583.64 0-322.34 261.305-583.638 583.639-583.638 322.34 0 583.64 261.298 583.64 583.638" fill="#fabb0a"/><path d="M1854.33 1406.56c0-319.67-259.15-578.818-578.82-578.818S696.695 1086.89 696.695 1406.56s259.145 578.82 578.815 578.82 578.82-259.15 578.82-578.82zm14.47 0c0 327.67-265.62 593.29-593.29 593.29-327.662 0-593.287-265.62-593.287-593.29 0-327.66 265.625-593.287 593.287-593.287 327.67 0 593.29 265.627 593.29 593.287" fill="#faba0a"/><path d="M1863.98 1406.56c0-325-263.47-588.462-588.47-588.462-324.998 0-588.463 263.462-588.463 588.462s263.465 588.47 588.463 588.47c325 0 588.47-263.47 588.47-588.47zm14.47 0c0 332.99-269.95 602.94-602.94 602.94s-602.932-269.95-602.932-602.94S942.52 803.625 1275.51 803.625s602.94 269.945 602.94 602.935" fill="#fab90a"/><path d="M1873.62 1406.56c0-330.33-267.78-598.111-598.11-598.111-330.326 0-598.108 267.781-598.108 598.111s267.782 598.11 598.108 598.11c330.33 0 598.11-267.78 598.11-598.11zm14.47 0c0 338.32-274.26 612.58-612.58 612.58-338.319 0-612.58-274.26-612.58-612.58s274.261-612.58 612.58-612.58c338.32 0 612.58 274.26 612.58 612.58" fill="#fab80b"/><path d="M1883.27 1406.56c0-335.65-272.1-607.755-607.76-607.755-335.655 0-607.76 272.105-607.76 607.755s272.105 607.76 607.76 607.76c335.66 0 607.76-272.11 607.76-607.76zm14.47 0c0 343.65-278.58 622.23-622.23 622.23-343.647 0-622.225-278.58-622.225-622.23s278.578-622.228 622.225-622.228c343.65 0 622.23 278.578 622.23 622.228" fill="#fab70b"/><path d="M1892.92 1406.56c0-340.98-276.43-617.404-617.41-617.404-340.983 0-617.405 276.424-617.405 617.404 0 340.99 276.422 617.4 617.405 617.4 340.98 0 617.41-276.41 617.41-617.4zm14.47 0c0 348.98-282.9 631.88-631.88 631.88-348.975 0-631.877-282.9-631.877-631.88 0-348.97 282.902-631.872 631.877-631.872 348.98 0 631.88 282.902 631.88 631.872" fill="#fab60c"/><path d="M1902.56 1406.56c0-346.31-280.74-627.052-627.05-627.052-346.311 0-627.049 280.742-627.049 627.052s280.738 627.05 627.049 627.05c346.31 0 627.05-280.74 627.05-627.05zm14.48 0c0 354.3-287.23 641.52-641.53 641.52-354.303 0-641.522-287.22-641.522-641.52s287.219-641.525 641.522-641.525c354.3 0 641.53 287.225 641.53 641.525" fill="#fab50c"/><path d="M1912.21 1406.56c0-351.64-285.06-636.697-636.7-636.697-351.635 0-636.697 285.057-636.697 636.697s285.062 636.7 636.697 636.7c351.64 0 636.7-285.06 636.7-636.7zm14.47 0c0 359.63-291.54 651.17-651.17 651.17-359.631 0-651.166-291.54-651.166-651.17s291.535-651.169 651.166-651.169c359.63 0 651.17 291.539 651.17 651.169" fill="#fab40c"/><path d="M1921.86 1406.56c0-356.97-289.38-646.345-646.35-646.345-356.967 0-646.342 289.375-646.342 646.345s289.375 646.35 646.342 646.35c356.97 0 646.35-289.38 646.35-646.35zm14.47 0c0 364.96-295.86 660.82-660.82 660.82-364.955 0-660.815-295.86-660.815-660.82s295.86-660.814 660.815-660.814c364.96 0 660.82 295.854 660.82 660.814" fill="#fab30c"/><path d="M1931.5 1406.56c0-362.29-293.69-655.99-655.99-655.99-362.295 0-655.994 293.7-655.994 655.99 0 362.3 293.699 655.99 655.994 655.99 362.3 0 655.99-293.69 655.99-655.99zm14.48 0c0 370.29-300.18 670.46-670.47 670.46-370.287 0-670.463-300.17-670.463-670.46s300.176-670.462 670.463-670.462c370.29 0 670.47 300.172 670.47 670.462" fill="#fab20c"/><path d="M1941.15 1406.56c0-367.62-298.02-665.642-665.64-665.642-367.619 0-665.639 298.022-665.639 665.642s298.02 665.64 665.639 665.64c367.62 0 665.64-298.02 665.64-665.64zm14.47 0c0 375.62-304.49 680.11-680.11 680.11-375.612 0-680.112-304.49-680.112-680.11 0-375.61 304.5-680.107 680.112-680.107 375.62 0 680.11 304.497 680.11 680.107" fill="#fab10d"/><path d="M1950.8 1406.56c0-372.95-302.34-675.287-675.29-675.287-372.951 0-675.283 302.337-675.283 675.287s302.332 675.29 675.283 675.29c372.95 0 675.29-302.34 675.29-675.29zm14.47 0c0 380.94-308.82 689.76-689.76 689.76s-689.756-308.82-689.756-689.76S894.57 716.801 1275.51 716.801s689.76 308.819 689.76 689.759" fill="#f9b10d"/><path d="M1960.45 1406.56c0-378.28-306.66-684.931-684.94-684.931-378.276 0-684.932 306.651-684.932 684.931s306.656 684.94 684.932 684.94c378.28 0 684.94-306.66 684.94-684.94zm14.46 0c0 386.27-313.13 699.4-699.4 699.4-386.272 0-699.401-313.13-699.401-699.4s313.129-699.404 699.401-699.404c386.27 0 699.4 313.134 699.4 699.404" fill="#f9b00d"/><path d="M1970.09 1406.56c0-383.6-310.97-694.58-694.58-694.58-383.604 0-694.58 310.98-694.58 694.58 0 383.61 310.976 694.58 694.58 694.58 383.61 0 694.58-310.97 694.58-694.58zm14.47 0c0 391.6-317.45 709.05-709.05 709.05-391.596 0-709.049-317.45-709.049-709.05s317.453-709.048 709.049-709.048c391.6 0 709.05 317.448 709.05 709.048" fill="#f9ae0d"/><path d="M1979.74 1406.56c0-388.93-315.29-704.228-704.23-704.228-388.932 0-704.229 315.298-704.229 704.228 0 388.94 315.297 704.23 704.229 704.23 388.94 0 704.23-315.29 704.23-704.23zm14.47 0c0 396.93-321.77 718.7-718.7 718.7-396.924 0-718.697-321.77-718.697-718.7 0-396.92 321.773-718.697 718.697-718.697 396.93 0 718.7 321.777 718.7 718.697" fill="#f9ad0d"/><path d="M1989.39 1406.56c0-394.26-319.62-713.876-713.88-713.876S561.637 1012.3 561.637 1406.56s319.613 713.88 713.873 713.88 713.88-319.62 713.88-713.88zm14.47 0c0 402.26-326.09 728.35-728.35 728.35-402.252 0-728.342-326.09-728.342-728.35s326.09-728.345 728.342-728.345c402.26 0 728.35 326.085 728.35 728.345" fill="#f9ac0d"/><path d="M1999.03 1406.56c0-399.59-323.93-723.521-723.52-723.521-399.588 0-723.518 323.931-723.518 723.521s323.93 723.52 723.518 723.52c399.59 0 723.52-323.93 723.52-723.52zm14.47 0c0 407.58-330.41 737.99-737.99 737.99s-737.99-330.41-737.99-737.99 330.41-737.994 737.99-737.994S2013.5 998.98 2013.5 1406.56" fill="#f9ac0d"/><path d="M2008.68 1406.56c0-404.92-328.25-733.165-733.17-733.165-404.916 0-733.17 328.245-733.17 733.165s328.254 733.17 733.17 733.17c404.92 0 733.17-328.25 733.17-733.17zm14.47 0c0 412.91-334.73 747.64-747.64 747.64-412.908 0-747.635-334.73-747.635-747.64 0-412.908 334.727-747.638 747.635-747.638 412.91 0 747.64 334.73 747.64 747.638" fill="#f9ab0e"/><path d="M2018.33 1406.56c0-410.244-332.57-742.814-742.82-742.814-410.244 0-742.815 332.57-742.815 742.814 0 410.25 332.571 742.82 742.815 742.82 410.25 0 742.82-332.57 742.82-742.82zm14.47 0c0 418.24-339.05 757.29-757.29 757.29-418.237 0-757.287-339.05-757.287-757.29s339.05-757.283 757.287-757.283c418.24 0 757.29 339.043 757.29 757.283" fill="#f9aa0e"/><path d="M2027.97 1406.56c0-415.572-336.88-752.462-752.46-752.462-415.572 0-752.463 336.89-752.463 752.462 0 415.58 336.891 752.46 752.463 752.46 415.58 0 752.46-336.88 752.46-752.46zm14.48 0c0 423.57-343.37 766.93-766.94 766.93-423.565 0-766.932-343.36-766.932-766.93 0-423.564 343.367-766.935 766.932-766.935 423.57 0 766.94 343.371 766.94 766.935" fill="#f9a90e"/><path d="M2037.62 1406.56c0-420.9-341.21-762.111-762.11-762.111-420.901 0-762.108 341.211-762.108 762.111s341.207 762.11 762.108 762.11c420.9 0 762.11-341.21 762.11-762.11zm14.47 0c0 428.89-347.68 776.58-776.58 776.58-428.893 0-776.576-347.69-776.576-776.58 0-428.892 347.683-776.58 776.576-776.58 428.9 0 776.58 347.688 776.58 776.58" fill="#f9a80e"/><path d="M2047.27 1406.56c0-426.228-345.53-771.755-771.76-771.755-426.229 0-771.752 345.527-771.752 771.755 0 426.23 345.523 771.76 771.752 771.76 426.23 0 771.76-345.53 771.76-771.76zm14.47 0c0 434.22-352.01 786.23-786.23 786.23-434.221 0-786.225-352.01-786.225-786.23s352.004-786.228 786.225-786.228c434.22 0 786.23 352.008 786.23 786.228" fill="#f9a70e"/><path d="M2056.91 1406.56c0-431.556-349.84-781.4-781.4-781.4-431.557 0-781.405 349.844-781.405 781.4 0 431.56 349.848 781.4 781.405 781.4 431.56 0 781.4-349.84 781.4-781.4zm14.48 0c0 439.55-356.33 795.87-795.88 795.87-439.549 0-795.873-356.32-795.873-795.87 0-439.548 356.324-795.872 795.873-795.872 439.55 0 795.88 356.324 795.88 795.872" fill="#f9a60e"/><path d="M2066.56 1406.56c0-436.884-354.17-791.052-791.05-791.052-436.881 0-791.049 354.168-791.049 791.052 0 436.89 354.168 791.05 791.049 791.05 436.88 0 791.05-354.16 791.05-791.05zm14.47 0c0 444.88-360.64 805.52-805.52 805.52-444.877 0-805.522-360.64-805.522-805.52 0-444.876 360.645-805.517 805.522-805.517 444.88 0 805.52 360.641 805.52 805.517" fill="#f9a50f"/><path d="M2076.21 1406.56c0-442.212-358.49-800.697-800.7-800.697-442.213 0-800.694 358.485-800.694 800.697 0 442.21 358.481 800.7 800.694 800.7 442.21 0 800.7-358.49 800.7-800.7zm14.47 0c0 450.21-364.97 815.17-815.17 815.17-450.201 0-815.166-364.96-815.166-815.17 0-450.205 364.965-815.169 815.166-815.169 450.2 0 815.17 364.964 815.17 815.169" fill="#f8a40f"/><path d="M2085.86 1406.56c0-447.54-362.81-810.345-810.35-810.345-447.537 0-810.342 362.805-810.342 810.345s362.805 810.35 810.342 810.35c447.54 0 810.35-362.81 810.35-810.35zm14.46 0c0 455.53-369.28 824.82-824.81 824.82-455.533 0-824.811-369.29-824.811-824.82 0-455.529 369.278-824.814 824.811-824.814 455.53 0 824.81 369.285 824.81 824.814" fill="#f8a30f"/><path d="M2095.5 1406.56c0-452.869-367.12-819.99-819.99-819.99-452.869 0-819.99 367.121-819.99 819.99 0 452.87 367.121 819.99 819.99 819.99 452.87 0 819.99-367.12 819.99-819.99zm14.47 0c0 460.86-373.6 834.46-834.46 834.46-460.858 0-834.459-373.6-834.459-834.46 0-460.861 373.601-834.462 834.459-834.462 460.86 0 834.46 373.601 834.46 834.462" fill="#f8a20f"/><path d="M2105.15 1406.56c0-458.197-371.44-829.638-829.64-829.638-458.194 0-829.639 371.441-829.639 829.638 0 458.2 371.445 829.64 829.639 829.64 458.2 0 829.64-371.44 829.64-829.64zm14.47 0c0 466.19-377.92 844.11-844.11 844.11-466.186 0-844.108-377.92-844.108-844.11 0-466.189 377.922-844.107 844.108-844.107 466.19 0 844.11 377.918 844.11 844.107" fill="#f8a10f"/><path d="M2114.8 1406.56c0-463.525-375.76-839.287-839.29-839.287-463.522 0-839.283 375.762-839.283 839.287 0 463.52 375.761 839.29 839.283 839.29 463.53 0 839.29-375.77 839.29-839.29zm14.47 0c0 471.52-382.24 853.76-853.76 853.76-471.514 0-853.756-382.24-853.756-853.76 0-471.517 382.242-853.755 853.756-853.755 471.52 0 853.76 382.238 853.76 853.755" fill="#f8a10f"/><path d="M2124.44 1406.56c0-468.849-380.08-848.931-848.93-848.931-468.854 0-848.928 380.082-848.928 848.931 0 468.85 380.074 848.93 848.928 848.93 468.85 0 848.93-380.08 848.93-848.93zm14.47 0c0 476.84-386.55 863.4-863.4 863.4-476.842 0-863.401-386.56-863.401-863.4 0-476.845 386.559-863.404 863.401-863.404 476.85 0 863.4 386.559 863.4 863.404" fill="#f8a00f"/><path d="M2134.09 1406.56c0-474.181-384.4-858.576-858.58-858.576-474.178 0-858.58 384.395-858.58 858.576 0 474.18 384.402 858.58 858.58 858.58 474.18 0 858.58-384.4 858.58-858.58zm14.47 0c0 482.17-390.88 873.05-873.05 873.05s-873.045-390.88-873.045-873.05c0-482.169 390.875-873.048 873.045-873.048s873.05 390.879 873.05 873.048" fill="#f89e10"/><path d="M2143.74 1406.56c0-479.505-388.72-868.224-868.23-868.224-479.506 0-868.225 388.719-868.225 868.224 0 479.51 388.719 868.23 868.225 868.23 479.51 0 868.23-388.72 868.23-868.23zm14.47 0c0 487.5-395.2 882.7-882.7 882.7-487.498 0-882.697-395.2-882.697-882.7 0-487.501 395.199-882.693 882.697-882.693 487.5 0 882.7 395.192 882.7 882.693" fill="#f89d10"/><path d="M2153.38 1406.56c0-484.833-393.03-877.872-877.87-877.872-484.834 0-877.873 393.039-877.873 877.872 0 484.84 393.039 877.87 877.873 877.87 484.84 0 877.87-393.03 877.87-877.87zm14.48 0c0 492.83-399.52 892.34-892.35 892.34-492.826 0-892.342-399.51-892.342-892.34 0-492.826 399.516-892.345 892.342-892.345 492.83 0 892.35 399.519 892.35 892.345" fill="#f89c10"/><path d="M2163.03 1406.56c0-490.165-397.35-887.521-887.52-887.521-490.162 0-887.518 397.356-887.518 887.521 0 490.16 397.356 887.52 887.518 887.52 490.17 0 887.52-397.36 887.52-887.52zm14.47 0c0 498.16-403.83 901.99-901.99 901.99-498.155 0-901.99-403.83-901.99-901.99 0-498.154 403.835-901.99 901.99-901.99 498.16 0 901.99 403.836 901.99 901.99" fill="#f89c10"/><path d="M2172.68 1406.56c0-495.49-401.68-897.165-897.17-897.165S378.348 911.07 378.348 1406.56s401.672 897.17 897.162 897.17 897.17-401.68 897.17-897.17zm14.47 0c0 503.48-408.15 911.64-911.64 911.64-503.483 0-911.635-408.16-911.635-911.64 0-503.482 408.152-911.638 911.635-911.638 503.49 0 911.64 408.156 911.64 911.638" fill="#f89b10"/><path d="M2182.32 1406.56c0-500.818-405.99-906.814-906.81-906.814-500.819 0-906.815 405.996-906.815 906.814 0 500.82 405.996 906.82 906.815 906.82 500.82 0 906.81-406 906.81-906.82zm14.48 0c0 508.81-412.48 921.28-921.29 921.28-508.811 0-921.283-412.47-921.283-921.28s412.472-921.283 921.283-921.283c508.81 0 921.29 412.473 921.29 921.283" fill="#f89a10"/><path d="M2191.97 1406.56c0-506.146-410.31-916.462-916.46-916.462-506.143 0-916.459 410.316-916.459 916.462 0 506.15 410.316 916.46 916.459 916.46 506.15 0 916.46-410.31 916.46-916.46zm14.47 0c0 514.14-416.79 930.93-930.93 930.93-514.139 0-930.932-416.79-930.932-930.93 0-514.138 416.793-930.927 930.932-930.927 514.14 0 930.93 416.789 930.93 930.927" fill="#f89910"/><path d="M2201.62 1406.56c0-511.474-414.64-926.107-926.11-926.107-511.475 0-926.108 414.633-926.108 926.107 0 511.48 414.633 926.11 926.108 926.11 511.47 0 926.11-414.63 926.11-926.11zm14.47 0c0 519.47-421.11 940.58-940.58 940.58-519.463 0-940.576-421.11-940.576-940.58 0-519.466 421.113-940.58 940.576-940.58 519.47 0 940.58 421.114 940.58 940.58" fill="#f79811"/><path d="M2211.27 1406.56c0-516.802-418.95-935.755-935.76-935.755-516.803 0-935.752 418.953-935.752 935.755 0 516.8 418.949 935.76 935.752 935.76 516.81 0 935.76-418.96 935.76-935.76zm14.46 0c0 524.8-425.43 950.23-950.22 950.23-524.795 0-950.225-425.43-950.225-950.23 0-524.794 425.43-950.224 950.225-950.224 524.79 0 950.22 425.43 950.22 950.224" fill="#f79711"/><path d="M2220.91 1406.56c0-522.13-423.27-945.4-945.4-945.4-522.131 0-945.401 423.27-945.401 945.4s423.27 945.4 945.401 945.4c522.13 0 945.4-423.27 945.4-945.4zm14.48 0c0 530.12-429.75 959.87-959.88 959.87-530.119 0-959.869-429.75-959.869-959.87 0-530.122 429.75-959.872 959.869-959.872 530.13 0 959.88 429.75 959.88 959.872" fill="#f79611"/><path d="M2230.56 1406.56c0-527.458-427.59-955.048-955.05-955.048-527.459 0-955.049 427.59-955.049 955.048 0 527.46 427.59 955.05 955.049 955.05 527.46 0 955.05-427.59 955.05-955.05zm14.47 0c0 535.45-434.07 969.52-969.52 969.52-535.447 0-969.518-434.07-969.518-969.52 0-535.451 434.071-969.517 969.518-969.517 535.45 0 969.52 434.066 969.52 969.517" fill="#f79511"/><path d="M2240.21 1406.56c0-532.787-431.91-964.697-964.7-964.697-532.783 0-964.694 431.91-964.694 964.697 0 532.79 431.911 964.7 964.694 964.7 532.79 0 964.7-431.91 964.7-964.7zm14.47 0c0 540.78-438.39 979.17-979.17 979.17s-979.166-438.39-979.166-979.17c0-540.779 438.386-979.165 979.166-979.165s979.17 438.386 979.17 979.165" fill="#f79411"/><path d="M2249.85 1406.56c0-538.111-436.22-974.341-974.34-974.341-538.115 0-974.342 436.23-974.342 974.341 0 538.12 436.227 974.34 974.342 974.34 538.12 0 974.34-436.22 974.34-974.34zm14.47 0c0 546.11-442.7 988.82-988.81 988.82-546.104 0-988.811-442.71-988.811-988.82 0-546.107 442.707-988.814 988.811-988.814 546.11 0 988.81 442.707 988.81 988.814" fill="#f79311"/><path d="M2259.5 1406.56c0-543.443-440.55-983.99-983.99-983.99s-983.99 440.547-983.99 983.99c0 543.44 440.55 983.99 983.99 983.99S2259.5 1950 2259.5 1406.56zm14.47 0c0 551.44-447.02 998.46-998.46 998.46-551.432 0-998.459-447.02-998.459-998.46 0-551.431 447.027-998.458 998.459-998.458 551.44 0 998.46 447.027 998.46 998.458" fill="#f79212"/><path d="M2269.15 1406.56c0-548.771-444.87-993.638-993.64-993.638-548.768 0-993.635 444.867-993.635 993.638 0 548.77 444.867 993.64 993.635 993.64 548.77 0 993.64-444.87 993.64-993.64zm14.47 0c0 556.76-451.35 1008.11-1008.11 1008.11S267.402 1963.32 267.402 1406.56c0-556.763 451.348-1008.107 1008.108-1008.107S2283.62 849.797 2283.62 1406.56" fill="#f79112"/><path d="M2278.79 1406.56c0-554.095-449.18-1003.283-1003.28-1003.283-554.096 0-1003.283 449.188-1003.283 1003.283 0 554.1 449.187 1003.28 1003.283 1003.28 554.1 0 1003.28-449.18 1003.28-1003.28zm14.48 0c0 562.09-455.67 1017.75-1017.76 1017.75-562.088 0-1017.752-455.66-1017.752-1017.75 0-562.087 455.664-1017.755 1017.752-1017.755 562.09 0 1017.76 455.668 1017.76 1017.755" fill="#f79112"/><path d="M2288.44 1406.56c0-559.427-453.5-1012.931-1012.93-1012.931-559.424 0-1012.928 453.504-1012.928 1012.931 0 559.42 453.504 1012.93 1012.928 1012.93 559.43 0 1012.93-453.51 1012.93-1012.93zm14.47 0c0 567.42-459.98 1027.4-1027.4 1027.4-567.416 0-1027.401-459.98-1027.401-1027.4 0-567.415 459.985-1027.4 1027.401-1027.4 567.42 0 1027.4 459.985 1027.4 1027.4" fill="#f79012"/><path d="M2298.09 1406.56c0-564.751-457.82-1022.576-1022.58-1022.576-564.752 0-1022.576 457.825-1022.576 1022.576 0 564.76 457.824 1022.58 1022.576 1022.58 564.76 0 1022.58-457.82 1022.58-1022.58zm14.47 0c0 572.74-464.3 1037.05-1037.05 1037.05-572.744 0-1037.045-464.31-1037.045-1037.05 0-572.747 464.301-1037.048 1037.045-1037.048 572.75 0 1037.05 464.301 1037.05 1037.048" fill="#f78e13"/><path d="M2307.73 1406.56c0-570.083-462.14-1032.224-1032.22-1032.224S243.285 836.477 243.285 1406.56c0 570.08 462.145 1032.23 1032.225 1032.23s1032.22-462.15 1032.22-1032.23zm14.48 0c0 578.07-468.62 1046.69-1046.7 1046.69-578.072 0-1046.694-468.62-1046.694-1046.69 0-578.072 468.622-1046.693 1046.694-1046.693 578.08 0 1046.7 468.621 1046.7 1046.693" fill="#f78d13"/><path d="M2317.38 1406.56c0-575.408-466.46-1041.872-1041.87-1041.872-575.408 0-1041.869 466.464-1041.869 1041.872 0 575.41 466.461 1041.87 1041.869 1041.87 575.41 0 1041.87-466.46 1041.87-1041.87zm14.47 0c0 583.4-472.94 1056.34-1056.34 1056.34-583.401 0-1056.342-472.94-1056.342-1056.34S692.109 350.219 1275.51 350.219c583.4 0 1056.34 472.941 1056.34 1056.341" fill="#f68c13"/><path d="M2327.03 1406.56c0-580.736-470.78-1051.517-1051.52-1051.517-580.737 0-1051.518 470.781-1051.518 1051.517 0 580.74 470.781 1051.52 1051.518 1051.52 580.74 0 1051.52-470.78 1051.52-1051.52zm14.47 0c0 588.73-477.26 1065.99-1065.99 1065.99-588.729 0-1065.987-477.26-1065.987-1065.99 0-588.728 477.258-1065.99 1065.987-1065.99 588.73 0 1065.99 477.262 1065.99 1065.99" fill="#f68c13"/><path d="M2336.68 1406.56c0-586.064-475.1-1061.165-1061.17-1061.165-586.065 0-1061.162 475.101-1061.162 1061.165 0 586.07 475.097 1061.17 1061.162 1061.17 586.07 0 1061.17-475.1 1061.17-1061.17zm14.46 0c0 594.06-481.57 1075.64-1075.63 1075.64-594.057 0-1075.635-481.58-1075.635-1075.64 0-594.056 481.578-1075.634 1075.635-1075.634 594.06 0 1075.63 481.578 1075.63 1075.634" fill="#f68b14"/><path d="M2346.32 1406.56c0-591.392-479.42-1070.81-1070.81-1070.81-591.389 0-1070.811 479.418-1070.811 1070.81 0 591.39 479.422 1070.81 1070.811 1070.81 591.39 0 1070.81-479.42 1070.81-1070.81zm14.48 0c0 599.39-485.9 1085.28-1085.29 1085.28-599.385 0-1085.283-485.89-1085.283-1085.28 0-599.384 485.898-1085.283 1085.283-1085.283 599.39 0 1085.29 485.899 1085.29 1085.283" fill="#f68a14"/><path d="M2355.97 1406.56c0-596.72-483.74-1080.458-1080.46-1080.458-596.721 0-1080.459 483.738-1080.459 1080.458S678.789 2487.02 1275.51 2487.02c596.72 0 1080.46-483.74 1080.46-1080.46zm14.47 0c0 604.71-490.22 1094.93-1094.93 1094.93-604.709 0-1094.928-490.22-1094.928-1094.93 0-604.712 490.219-1094.927 1094.928-1094.927 604.71 0 1094.93 490.215 1094.93 1094.927" fill="#f68914"/><path d="M2365.62 1406.56c0-602.048-488.06-1090.107-1090.11-1090.107-602.045 0-1090.104 488.059-1090.104 1090.107 0 602.05 488.059 1090.11 1090.104 1090.11 602.05 0 1090.11-488.06 1090.11-1090.11zm14.47 0c0 610.04-494.54 1104.58-1104.58 1104.58-610.041 0-1104.576-494.54-1104.576-1104.58S665.469 301.984 1275.51 301.984c610.04 0 1104.58 494.536 1104.58 1104.576" fill="#f68814"/><path d="M2375.26 1406.56c0-607.376-492.37-1099.751-1099.75-1099.751-607.377 0-1099.752 492.375-1099.752 1099.751 0 607.38 492.375 1099.75 1099.752 1099.75 607.38 0 1099.75-492.37 1099.75-1099.75zm14.47 0c0 615.37-498.85 1114.23-1114.22 1114.23-615.365 0-1114.221-498.86-1114.221-1114.23 0-615.369 498.856-1114.224 1114.221-1114.224 615.37 0 1114.22 498.855 1114.22 1114.224" fill="#f68714"/><path d="M2384.91 1406.56c0-612.705-496.69-1109.4-1109.4-1109.4-612.705 0-1109.401 496.695-1109.401 1109.4 0 612.71 496.696 1109.4 1109.401 1109.4 612.71 0 1109.4-496.69 1109.4-1109.4zm14.47 0c0 620.7-503.17 1123.87-1123.87 1123.87-620.694 0-1123.869-503.17-1123.869-1123.87 0-620.697 503.175-1123.869 1123.869-1123.869 620.7 0 1123.87 503.172 1123.87 1123.869" fill="#f68614"/><path d="M2394.56 1406.56c0-618.033-501.02-1119.048-1119.05-1119.048S156.465 788.527 156.465 1406.56c0 618.03 501.015 1119.05 1119.045 1119.05s1119.05-501.02 1119.05-1119.05zm14.47 0c0 626.03-507.49 1133.52-1133.52 1133.52-626.022 0-1133.518-507.49-1133.518-1133.52 0-626.025 507.496-1133.517 1133.518-1133.517 626.03 0 1133.52 507.492 1133.52 1133.517" fill="#f68514"/><path d="M2404.2 1406.56c0-623.357-505.33-1128.693-1128.69-1128.693-623.362 0-1128.694 505.336-1128.694 1128.693 0 623.36 505.332 1128.69 1128.694 1128.69 623.36 0 1128.69-505.33 1128.69-1128.69zm14.48 0c0 631.35-511.82 1143.16-1143.17 1143.16S132.348 2037.91 132.348 1406.56c0-631.353 511.812-1143.165 1143.162-1143.165S2418.68 775.207 2418.68 1406.56" fill="#f68415"/><path d="M2413.85 1406.56c0-628.689-509.65-1138.341-1138.34-1138.341-628.686 0-1138.338 509.652-1138.338 1138.341 0 628.69 509.652 1138.34 1138.338 1138.34 628.69 0 1138.34-509.65 1138.34-1138.34zm14.47 0c0 636.68-516.13 1152.82-1152.81 1152.82-636.682 0-1152.811-516.14-1152.811-1152.82 0-636.677 516.129-1152.81 1152.811-1152.81 636.68 0 1152.81 516.133 1152.81 1152.81" fill="#f68315"/><path d="M2423.5 1406.56c0-634.013-513.97-1147.986-1147.99-1147.986-634.014 0-1147.987 513.973-1147.987 1147.986 0 634.02 513.973 1147.99 1147.987 1147.99 634.02 0 1147.99-513.97 1147.99-1147.99zm14.47 0c0 642.01-520.45 1162.46-1162.46 1162.46-642.006 0-1162.455-520.45-1162.455-1162.46 0-642.009 520.449-1162.458 1162.455-1162.458 642.01 0 1162.46 520.449 1162.46 1162.458" fill="#f68215"/><path d="M2433.15 1406.56c0-639.345-518.29-1157.634-1157.64-1157.634-639.342 0-1157.635 518.289-1157.635 1157.634 0 639.35 518.293 1157.64 1157.635 1157.64 639.35 0 1157.64-518.29 1157.64-1157.64zm14.47 0c0 647.33-524.77 1172.1-1172.11 1172.1-647.334 0-1172.104-524.77-1172.104-1172.1 0-647.333 524.77-1172.103 1172.104-1172.103 647.34 0 1172.11 524.77 1172.11 1172.103" fill="#f68115"/><path d="M2442.79 1406.56c0-644.673-522.61-1167.283-1167.28-1167.283S108.23 761.887 108.23 1406.56c0 644.67 522.61 1167.28 1167.28 1167.28s1167.28-522.61 1167.28-1167.28zm14.48 0c0 652.67-529.09 1181.75-1181.76 1181.75-652.662 0-1181.752-529.08-1181.752-1181.75 0-652.662 529.09-1181.751 1181.752-1181.751 652.67 0 1181.76 529.089 1181.76 1181.751" fill="#f58115"/><path d="M2452.44 1406.56c0-649.997-526.93-1176.927-1176.93-1176.927-649.998 0-1176.928 526.93-1176.928 1176.927 0 650 526.93 1176.93 1176.928 1176.93 650 0 1176.93-526.93 1176.93-1176.93zm14.47 0c0 657.99-533.41 1191.4-1191.4 1191.4S84.113 2064.55 84.113 1406.56 617.52 215.16 1275.51 215.16s1191.4 533.41 1191.4 1191.4" fill="#f58015"/><path d="M2462.09 1406.56c0-655.33-531.25-1186.576-1186.58-1186.576-655.326 0-1186.572 531.246-1186.572 1186.576S620.184 2593.14 1275.51 2593.14c655.33 0 1186.58-531.25 1186.58-1186.58zm14.46 0c0 663.32-537.72 1201.05-1201.04 1201.05-663.319 0-1201.045-537.73-1201.045-1201.05 0-663.318 537.726-1201.044 1201.045-1201.044 663.32 0 1201.04 537.726 1201.04 1201.044" fill="#f57e16"/><path d="M2471.73 1406.56c0-660.654-535.56-1196.22-1196.22-1196.22-660.655 0-1196.22 535.566-1196.22 1196.22 0 660.65 535.565 1196.22 1196.22 1196.22 660.66 0 1196.22-535.57 1196.22-1196.22zm14.48 0c0 668.65-542.05 1210.69-1210.7 1210.69-668.647 0-1210.694-542.04-1210.694-1210.69S606.863 195.867 1275.51 195.867c668.65 0 1210.7 542.043 1210.7 1210.693" fill="#f57d16"/><path d="M2481.38 1406.56c0-665.982-539.88-1205.869-1205.87-1205.869-665.983 0-1205.87 539.887-1205.87 1205.869 0 665.98 539.887 1205.87 1205.87 1205.87 665.99 0 1205.87-539.89 1205.87-1205.87zm14.47 0c0 673.98-546.36 1220.34-1220.34 1220.34-673.971 0-1220.338-546.36-1220.338-1220.34 0-673.974 546.367-1220.337 1220.338-1220.337 673.98 0 1220.34 546.363 1220.34 1220.337" fill="#f57c16"/><path d="M2491.03 1406.56c0-671.31-544.21-1215.517-1215.52-1215.517-671.311 0-1215.514 544.207-1215.514 1215.517S604.2 2622.08 1275.51 2622.08s1215.52-544.21 1215.52-1215.52zm14.47 0c0 679.3-550.69 1229.99-1229.99 1229.99-679.303 0-1229.987-550.69-1229.987-1229.99 0-679.302 550.684-1229.986 1229.987-1229.986 679.3 0 1229.99 550.684 1229.99 1229.986" fill="#f57c16"/><path d="M2500.68 1406.56c0-676.638-548.53-1225.162-1225.17-1225.162-676.639 0-1225.162 548.524-1225.162 1225.162 0 676.64 548.523 1225.17 1225.162 1225.17 676.64 0 1225.17-548.53 1225.17-1225.17zm9.64 0c0 681.97-552.84 1234.81-1234.81 1234.81-681.967 0-1234.81-552.84-1234.81-1234.81 0-681.966 552.843-1234.81 1234.81-1234.81 681.97 0 1234.81 552.844 1234.81 1234.81" fill="#f68a1e"/></g></g></svg>